<?xml version="1.0" encoding="utf-8"?>
<!-- Generator: Adobe Illustrator 23.0.3, SVG Export Plug-In . SVG Version: 6.00 Build 0)  -->
<svg version="1.1" id="Layer_1" xmlns="http://www.w3.org/2000/svg" xmlns:xlink="http://www.w3.org/1999/xlink" x="0px" y="0px"
	 viewBox="0 0 460.1 500" style="enable-background:new 0 0 460.1 500;" xml:space="preserve">
<style type="text/css">
	.st0{opacity:0.4;fill:#D6D8E5;enable-background:new    ;}
	.st1{fill:#B1B4C4;}
	.st2{fill:#D6D8E5;}
	.st3{fill:#9EA1AF;}
	.st4{fill:#E4E7F2;}
	.st5{fill:#FFFFFF;}
	.st6{fill:#E9EAF2;}
	.st7{fill:#2F55D4;}
	.st8{fill:none;stroke:#E9EAF2;stroke-width:0.31;stroke-miterlimit:10;}
	.st9{opacity:5.000000e-02;enable-background:new    ;}
	.st10{fill:#F5F7FC;}
	.st11{fill:#DADCE5;}
	.st12{fill:#F9CB07;}
	.st13{opacity:0.3;fill:#D6D8E5;enable-background:new    ;}
	.st14{fill:#DD990E;}
	.st15{fill:#CC8B09;}
	.st16{fill:#E8A30A;}
	.st17{fill:#F9CA06;}
	.st18{fill:#D33D3D;}
	.st19{fill:#F4F4F4;}
	.st20{fill:#FF4D4D;}
	.st21{fill:#2B303F;}
	.st22{fill:#FFCEA9;}
	.st23{fill:#1D3892;}
	.st24{fill:#9C73FF;}
	.st25{fill:#EDEDED;}
	.st26{fill:#BFBFBF;}
	.st27{fill:#E5E5E5;}
	.st28{fill:#3E7EFF;}
	.st29{opacity:0.1;enable-background:new    ;}
	.st30{opacity:0.15;enable-background:new    ;}
	.st31{fill:#B7E200;}
	.st32{opacity:0.1;fill:#3E7EFF;enable-background:new    ;}
	.st33{fill:#394051;}
	.st34{fill:#232733;}
	.st35{fill:#F5F6FF;}
	.st36{fill:#356D00;}
	.st37{fill:#489300;}
	.st38{fill:#B6B6B7;}
	.st39{fill:#EDEDEF;}
	.st40{fill:#49A300;}
	.st41{display:none;fill:#FFFCF4;}
	.st42{fill:#0E0000;}
	.st43{fill:#AC6D5A;}
	.st44{fill:#CC826E;}
	.st45{fill:#2345A5;}
	.st46{fill:#E1937B;}
	.st47{fill:#C47161;}
	.st48{fill:#E18E74;}
	.st49{fill:#CBCAC8;}
	.st50{fill:#E2E1E0;}
	.st51{fill:none;stroke:#E2E1E0;stroke-width:2.9481;stroke-miterlimit:10;}
	.st52{fill:#270000;}
	.st53{fill:none;stroke:#B4B2AF;stroke-width:0.25;stroke-miterlimit:10;}
	.st54{fill:#B47851;}
	.st55{fill:#CD7763;}
	.st56{fill:#9A644E;}
	.st57{fill:#2982C6;}
	.st58{fill:#006299;}
</style>
<title>SEO_SVG</title>
<g id="Слой_2">
	<g id="Слой_1-2">
		<g id="monitor">
			<path class="st0" d="M305.5,350.3l-50.1-29c-3.6-2.1-3.2-5.7,1-8.1l32.5-18.8l63.2,36.5l-32.5,18.8
				C315.5,352.1,309.1,352.3,305.5,350.3z"/>
			<path class="st1" d="M310.1,347.6l-50.1-29c-3.6-2.1-3.2-5.7,1-8.1l32.5-18.8l63.2,36.5L324.2,347
				C320,349.4,313.7,349.7,310.1,347.6z"/>
			<polygon class="st1" points="356.7,328.3 356.7,326.3 353.7,328 			"/>
			<polygon class="st1" points="257.5,315.2 257.5,313.3 260.5,314.5 			"/>
			<path class="st2" d="M310.1,345.7l-50.1-29c-3.6-2.1-3.2-5.7,1-8.1l32.5-18.8l63.2,36.5l-32.5,18.8
				C320,347.5,313.7,347.8,310.1,345.7z"/>
			<polygon class="st3" points="293.6,289.9 285.8,264 349.7,300.6 356.7,326.3 			"/>
			<path class="st3" d="M354.8,327.4l1.9-1.1l-2.8-2.2L354.8,327.4z"/>
			<polygon class="st1" points="291.6,290.9 283.8,264.9 347.7,301.6 354.8,327.4 			"/>
			<path class="st1" d="M453.9,371.2L206.4,228.3c-3.5-2-6.3-7.4-6.3-12V24.9c0-4.6,2.8-6.8,6.3-4.8L453.9,163c3.5,2,6.3,7.4,6.3,12
				v191.4C460.1,371,457.3,373.2,453.9,371.2z"/>
			<polygon class="st1" points="455.1,373.1 457.9,371.6 456.7,363.4 			"/>
			<path class="st1" d="M199.7,21.3l2.7-1.6l3.9,2.3c0,0-4.1,0.6-4.2,0.6S199.7,21.3,199.7,21.3z"/>
			<path class="st4" d="M451.6,372.5L204.1,229.6c-3.5-2-6.3-7.4-6.3-12V26.2c0-4.6,2.8-6.8,6.3-4.8l247.5,142.9
				c3.5,2,6.3,7.4,6.3,12v191.4C457.9,372.4,455.1,374.5,451.6,372.5z"/>
			<path class="st2" d="M457.4,176.6V368c0,4.6-2.8,6.8-6.3,4.8L203.7,229.9c-3.5-2-6.3-7.4-6.3-12V26.4c0-4.6,2.8-6.8,6.3-4.8
				l247.5,142.9C454.6,166.6,457.4,171.9,457.4,176.6z"/>
			<path class="st5" d="M454,361.1L200.6,214.7l0.1-187.5c0-1.9,1.3-2.7,3-1.7l247.5,142.9c1.8,1.2,2.9,3.1,3,5.2L454,361.1z"/>
		</g>
		<g>
			<path class="st6" d="M294.3,101.3l-88.4-51c-0.8-0.6-1.3-1.5-1.3-2.6v-6.2c0-0.9,0.6-1.4,1.3-1l88.4,51c0.8,0.6,1.3,1.6,1.3,2.6
				v6.2C295.7,101.3,295.1,101.8,294.3,101.3z"/>
			<path class="st6" d="M271.6,102.8l-65.3-37.7c-0.8-0.6-1.3-1.5-1.3-2.6v-3.1c0-0.9,0.6-1.4,1.3-1l65.3,37.7
				c0.8,0.6,1.3,1.5,1.3,2.6v3.1C273,102.8,272.4,103.2,271.6,102.8z"/>
			<path class="st6" d="M271.6,114.4l-65.3-37.6c-0.8-0.6-1.3-1.5-1.3-2.6v-3.1c0-0.9,0.6-1.4,1.3-1l65.3,37.7
				c0.8,0.6,1.3,1.5,1.3,2.6v3.1C273,114.4,272.4,114.9,271.6,114.4z"/>
			<path class="st7" d="M259.3,119l-52.9-30.6c-0.8-0.6-1.3-1.5-1.3-2.6v-3.1c0-0.9,0.6-1.4,1.3-1l52.9,30.6
				c0.8,0.6,1.3,1.5,1.3,2.6v3.1C260.7,118.9,260.1,119.4,259.3,119z"/>
			<path class="st6" d="M294.3,223.4l-88.4-51c-0.8-0.6-1.3-1.5-1.3-2.6v-6.2c0-1,0.6-1.4,1.3-1l88.4,51c0.8,0.6,1.3,1.6,1.3,2.6
				v6.2C295.7,223.4,295.1,223.8,294.3,223.4z"/>
			<path class="st6" d="M271.6,224.9l-65.3-37.6c-0.8-0.6-1.3-1.5-1.3-2.6v-3.1c0-1,0.6-1.4,1.3-1l65.3,37.6
				c0.8,0.6,1.3,1.6,1.3,2.6v3.1C273,224.8,272.4,225.3,271.6,224.9z"/>
			<path class="st6" d="M271.6,236.5l-65.3-37.7c-0.8-0.6-1.3-1.5-1.3-2.6v-3.1c0-0.9,0.6-1.4,1.3-1l65.3,37.6
				c0.8,0.6,1.3,1.6,1.3,2.6v3.1C273,236.5,272.4,236.9,271.6,236.5z"/>
			<path class="st7" d="M259.3,241l-52.9-30.6c-0.8-0.6-1.3-1.5-1.3-2.6v-3.1c0-1,0.6-1.4,1.3-1l52.9,30.6c0.8,0.6,1.3,1.5,1.3,2.6
				v3.1C260.7,241,260.1,241.4,259.3,241z"/>
			<path class="st6" d="M291.1,201.2l-84.7-48.9c-0.8-0.6-1.3-1.5-1.3-2.6v-48.9c0-0.9,0.6-1.4,1.3-1l84.7,48.9
				c0.8,0.6,1.3,1.5,1.3,2.6v48.9C292.4,201.2,291.8,201.6,291.1,201.2z"/>
			<line class="st8" x1="403.5" y1="277.7" x2="403.5" y2="324.2"/>
			<ellipse transform="matrix(0.867 -0.4983 0.4983 0.867 -84.6532 238.8425)" class="st7" cx="405.1" cy="278" rx="2.4" ry="4.1"/>
			<path class="st6" d="M320.5,173l-5.1-2.9c-0.8-0.6-1.3-1.5-1.3-2.6V143c0-1,0.6-1.4,1.3-1l5.1,2.9c0.8,0.6,1.3,1.5,1.4,2.5v24.5
				C321.9,172.9,321.2,173.4,320.5,173z"/>
			<path class="st7" d="M332.2,179.7l-5.1-2.9c-0.8-0.6-1.3-1.5-1.3-2.6v-49.9c0-0.9,0.6-1.4,1.3-1l5.1,2.9c0.8,0.6,1.3,1.5,1.3,2.6
				v49.9C333.5,179.7,332.9,180.1,332.2,179.7z"/>
			<path class="st6" d="M355.5,193.2l-5.1-2.9c-0.8-0.6-1.3-1.5-1.3-2.6v-45c0-1,0.6-1.4,1.3-1l5.1,2.9c0.8,0.6,1.3,1.5,1.3,2.6v45
				C356.9,193.2,356.3,193.6,355.5,193.2z"/>
			<path class="st7" d="M367.2,199.9l-5.1-2.9c-0.8-0.6-1.3-1.5-1.3-2.6v-37.3c0-0.9,0.6-1.4,1.3-1l5.1,2.9c0.8,0.6,1.3,1.5,1.3,2.6
				v37.3C368.6,199.9,368,200.4,367.2,199.9z"/>
			<path class="st6" d="M390.5,213.4l-5.1-2.9c-0.8-0.6-1.3-1.5-1.3-2.6v-18.4c0-1,0.6-1.4,1.3-1l5.1,2.9c0.8,0.6,1.3,1.6,1.3,2.6
				v18.4C391.8,213.3,391.2,213.8,390.5,213.4z"/>
			<path class="st7" d="M402.2,220.1l-5-2.9c-0.8-0.6-1.3-1.5-1.3-2.6v-62.7c0-1,0.6-1.4,1.3-1l5.1,2.9c0.8,0.6,1.3,1.5,1.3,2.6
				v62.7C403.5,220.1,402.9,220.5,402.2,220.1z"/>
			<path class="st6" d="M430.7,236.6l-5.1-2.9c-0.8-0.6-1.3-1.5-1.3-2.6v-18.4c0-1,0.6-1.4,1.3-1l5.1,2.9c0.8,0.6,1.3,1.5,1.3,2.6
				v18.4C432,236.5,431.4,237,430.7,236.6z"/>
			<path class="st7" d="M442.4,243.3l-5.1-2.9c-0.8-0.6-1.3-1.5-1.3-2.6v-24.5c0-1,0.6-1.4,1.3-1l5.1,2.9c0.8,0.6,1.3,1.5,1.3,2.6
				v24.5C443.7,243.3,443.1,243.7,442.4,243.3z"/>
		</g>
		<path class="st9" d="M226.5,129v89.6c0,3.3-2,4.9-4.5,3.4l-24.5-14.1V106.2l24.5,14.2C224.4,121.8,226.5,125.7,226.5,129z"/>
		<path class="st2" d="M203.1,98.7l-75.4-43.5c-0.8-0.5-1.8-0.7-2.7-0.4l0,0c-0.2,0.1-0.4,0.2-0.6,0.3l-2.4,1.4l1.1,1.5
			c0,0.2,0,0.4,0,0.6v89.6c0,3.3,2,7.2,4.5,8.7l73.9,42.7l0.9,3l3.2-1.8c0.2-0.1,0.3-0.2,0.5-0.3l0,0c1-0.9,1.5-2.2,1.3-3.5v-89.6
			C207.6,104,205.6,100.1,203.1,98.7z"/>
		<path class="st10" d="M199.9,202.1l-75.4-43.5c-2.5-1.4-4.5-5.3-4.5-8.7V60.3c0-3.3,2-4.9,4.5-3.4l75.4,43.5
			c2.5,1.4,4.5,5.3,4.5,8.7v89.6C204.5,202,202.4,203.6,199.9,202.1z"/>
		<polygon class="st11" points="131.8,153.4 133.6,154.4 133.6,74.7 131.8,73.7 		"/>
		<path class="st12" d="M132.7,111.6L132.7,111.6c-2-1.4-3.1-3.7-3.2-6.1v-9.3c0-2.3,1.4-3.4,3.2-2.4l0,0c2,1.4,3.1,3.7,3.2,6.1v9.3
			C135.9,111.6,134.5,112.6,132.7,111.6z"/>
		<polygon class="st11" points="151.3,164.3 153.1,165.4 153.1,85.7 151.3,84.6 		"/>
		<path class="st12" d="M152.2,148.8L152.2,148.8c-2-1.4-3.1-3.7-3.2-6.1v-9.4c0-2.3,1.4-3.4,3.2-2.4l0,0c2,1.4,3.1,3.7,3.2,6.1v9.4
			C155.4,148.7,153.9,149.8,152.2,148.8z"/>
		<polygon class="st11" points="170.7,175.6 172.5,176.6 172.5,96.9 170.7,95.9 		"/>
		<path class="st12" d="M171.6,123.3L171.6,123.3c-2-1.4-3.1-3.7-3.2-6.1v-9.3c0-2.3,1.4-3.4,3.2-2.4l0,0c2,1.4,3.1,3.7,3.2,6.1v9.3
			C174.8,123.2,173.4,124.3,171.6,123.3z"/>
		<polygon class="st11" points="190.2,186.8 192,187.8 192,108.1 190.2,107.1 		"/>
		<path class="st12" d="M191.1,155.5L191.1,155.5c-2-1.4-3.1-3.7-3.2-6.1V140c0-2.3,1.4-3.4,3.2-2.4l0,0c2,1.4,3.1,3.7,3.2,6.1v9.4
			C194.2,155.4,192.8,156.5,191.1,155.5z"/>
		<g id="Coin">
			<ellipse class="st13" cx="155.2" cy="286" rx="27.8" ry="16"/>
			<ellipse class="st14" cx="162.1" cy="281.8" rx="27.8" ry="16"/>
			<polygon class="st14" points="134.3,282.1 134.3,274.8 139.8,279.6 			"/>
			<polygon class="st14" points="189.9,275 189.9,281.8 187.1,284.8 185.7,276.9 			"/>
			<ellipse class="st12" cx="162.1" cy="275" rx="27.8" ry="16"/>
			<path class="st15" d="M182,275.5c-0.3,2.7-2.2,5.4-5.8,7.4c-7.8,4.5-20.4,4.5-28.1,0c-3.6-2.1-5.5-4.7-5.8-7.4
				c-0.3-3.2,1.6-6.4,5.8-8.8c7.8-4.5,20.4-4.5,28.1,0C180.4,269,182.3,272.3,182,275.5z"/>
			<path class="st16" d="M182,275.5c-0.3,2.7-2.2,5.4-5.8,7.4c-7.8,4.5-20.4,4.5-28.1,0c-3.6-2.1-5.5-4.7-5.8-7.4
				c0.3-2.7,2.2-5.4,5.8-7.4c7.8-4.5,20.4-4.5,28.1,0C179.8,270.1,181.7,272.8,182,275.5z"/>
			<path class="st15" d="M161.8,271.7c-0.2,0-0.5,0-0.7,0.1c-0.3,0-0.7,0.1-1.1,0.2s-0.8,0.2-1.3,0.3c-0.4,0.1-0.8,0.3-1.2,0.5
				l3.2,1.8l0.6-0.2c0.8-0.3,1.6-0.5,2.3-0.7s1.4-0.3,2.1-0.3c0.6,0,1.3,0,1.9,0.1c0.6,0.1,1.3,0.4,1.8,0.7c0.6,0.3,1,0.7,1.4,1.2
				c0.2,0.4,0.3,0.8,0.2,1.3s-0.4,0.9-0.8,1.2c-0.4,0.4-0.9,0.8-1.5,1.1l2,1.2l-1.1,0.6l-2.1-1.2c-1,0.5-2,0.9-3,1.1
				c-1.1,0.3-2.2,0.5-3.4,0.6l-1.1-1.9c0.3,0,0.6,0,0.9-0.1c0.5-0.1,0.9-0.1,1.3-0.2c0.5-0.1,1-0.2,1.6-0.4c0.5-0.2,1.1-0.3,1.6-0.6
				l-3.2-1.8l-0.4,0.1l-0.4,0.1c-0.7,0.2-1.5,0.5-2.2,0.6c-0.6,0.1-1.2,0.2-1.9,0.3c-0.6,0-1.1,0-1.7-0.1c-0.5-0.1-1.1-0.3-1.5-0.6
				c-0.5-0.3-1-0.7-1.3-1.1s-0.4-0.8-0.4-1.2c0-0.5,0.2-0.9,0.5-1.2c0.4-0.5,0.8-0.8,1.3-1.2l-1.9-1.1l1.1-0.6l1.9,1.1
				c0.9-0.4,1.8-0.8,2.7-1s1.8-0.4,2.8-0.5L161.8,271.7z M156.4,275c0.4,0.2,0.9,0.3,1.4,0.3c0.7-0.1,1.3-0.2,1.9-0.4l-3-1.7
				C155.6,273.9,155.5,274.5,156.4,275z M166.9,275.9c-0.5-0.2-1-0.3-1.5-0.3c-0.7,0.1-1.4,0.2-2.1,0.5l3,1.7
				C167.6,277,167.8,276.4,166.9,275.9L166.9,275.9z"/>
			<path class="st15" d="M160.1,279.5c0-0.1,0-1.1,0-1.1l1.2,0.8l-0.5,0.8L160.1,279.5z"/>
			<polygon class="st15" points="170.8,280.2 170.8,279.1 168.1,279.3 169.6,280.4 			"/>
			<polygon class="st15" points="171,276.3 171,275.2 169,275.9 			"/>
			<path class="st15" d="M162.8,276.2l0.7-0.6l2.3,1.6l-0.1,0.5c0,0-1.7-0.7-1.8-0.8L162.8,276.2z"/>
			<path class="st15" d="M156.7,272.8l3.1,1.8l0.6-0.5c0,0-0.4-0.4-0.4-0.5c-0.3-0.3-0.6-0.6-1-0.8c-0.2,0-1.7-0.7-1.7-0.7
				L156.7,272.8z"/>
			<polygon class="st15" points="161.8,271.7 161.8,270.6 160.4,270.1 160.1,271 160.2,271.4 			"/>
			<polygon class="st15" points="152.4,270.9 152.4,269.8 154.1,270 153.5,271 			"/>
			<path class="st15" d="M152.5,274.6v-1.1h1.9l-0.5,1l-0.8,0.9L152.5,274.6z"/>
			<path class="st17" d="M161.8,270.6c-0.2,0-0.5,0-0.7,0.1c-0.3,0-0.7,0.1-1.1,0.2s-0.8,0.2-1.3,0.3c-0.4,0.1-0.8,0.3-1.2,0.5
				l3.2,1.8l0.6-0.2c0.8-0.3,1.6-0.5,2.3-0.7s1.4-0.3,2.1-0.3c0.6,0,1.3,0,1.9,0.1c0.6,0.1,1.3,0.4,1.8,0.7c0.6,0.3,1,0.7,1.4,1.2
				c0.2,0.4,0.3,0.8,0.2,1.3s-0.4,0.9-0.8,1.2c-0.4,0.4-0.9,0.8-1.5,1.1l2,1.2l-1.1,0.6l-2.1-1.2c-1,0.5-2,0.9-3,1.1
				c-1.1,0.3-2.2,0.5-3.4,0.6l-1.1-1.9c0.3,0,0.6,0,0.9-0.1c0.5-0.1,0.9-0.1,1.3-0.2c0.5-0.1,1-0.2,1.6-0.4c0.5-0.2,1.1-0.3,1.6-0.6
				l-3.2-1.8l-0.4,0.1l-0.4,0.1c-0.7,0.2-1.5,0.5-2.2,0.6c-0.6,0.1-1.2,0.2-1.9,0.3c-0.6,0-1.1,0-1.7-0.1c-0.5-0.1-1.1-0.3-1.5-0.6
				c-0.5-0.3-1-0.7-1.3-1.1s-0.4-0.8-0.4-1.2c0-0.5,0.2-0.9,0.5-1.3c0.4-0.5,0.8-0.8,1.3-1.2l-1.9-1.1l1.1-0.6l1.9,1.1
				c0.9-0.4,1.8-0.8,2.7-1s1.8-0.4,2.8-0.5L161.8,270.6z M156.4,274c0.4,0.2,0.9,0.3,1.4,0.3c0.7-0.1,1.3-0.2,1.9-0.4l-3-1.7
				C155.6,272.8,155.5,273.4,156.4,274z M166.9,274.9c-0.5-0.3-1-0.3-1.5-0.3c-0.7,0.1-1.4,0.2-2.1,0.5l3,1.7
				C167.6,276,167.8,275.3,166.9,274.9L166.9,274.9z"/>
		</g>
		<g id="Coin-2">
			<ellipse class="st14" cx="164.4" cy="273.3" rx="27.8" ry="16"/>
			<polygon class="st14" points="136.6,273.5 136.6,266.2 142.1,271.1 			"/>
			<polygon class="st14" points="192.2,266.4 192.2,273.3 189.4,276.3 188,268.4 			"/>
			<ellipse class="st12" cx="164.4" cy="266.4" rx="27.8" ry="16"/>
			<path class="st15" d="M184.3,266.9c-0.3,2.7-2.2,5.4-5.8,7.4c-7.8,4.5-20.4,4.5-28.1,0c-3.6-2.1-5.5-4.7-5.8-7.4
				c-0.3-3.2,1.6-6.4,5.8-8.8c7.8-4.5,20.4-4.5,28.1,0C182.7,260.5,184.6,263.7,184.3,266.9z"/>
			<path class="st16" d="M184.3,266.9c-0.3,2.7-2.2,5.4-5.8,7.4c-7.8,4.5-20.4,4.5-28.1,0c-3.6-2.1-5.5-4.7-5.8-7.4
				c0.3-2.7,2.2-5.4,5.8-7.4c7.8-4.5,20.4-4.5,28.1,0C182.1,261.5,184,264.2,184.3,266.9z"/>
			<path class="st15" d="M164.1,263.1c-0.2,0-0.5,0-0.7,0.1c-0.3,0-0.7,0.1-1.1,0.2s-0.8,0.2-1.3,0.3c-0.4,0.1-0.8,0.3-1.3,0.5
				l3.2,1.8l0.6-0.2c0.8-0.3,1.6-0.5,2.3-0.7s1.4-0.3,2.1-0.3c0.6,0,1.3,0,1.9,0.1c0.6,0.1,1.3,0.4,1.8,0.7c0.6,0.3,1,0.7,1.4,1.2
				c0.2,0.4,0.3,0.8,0.2,1.3s-0.4,0.9-0.8,1.2c-0.4,0.4-0.9,0.8-1.5,1.1l2,1.2l-1.1,0.6l-2-1.2c-1,0.5-2,0.9-3.1,1.1
				c-1.1,0.3-2.2,0.5-3.4,0.6l-1.1-1.9c0.3,0,0.6,0,0.9-0.1c0.5-0.1,0.9-0.1,1.3-0.2c0.5-0.1,1-0.2,1.6-0.4c0.5-0.2,1.1-0.3,1.6-0.6
				l-3.2-1.8l-0.4,0.1l-0.4,0.1c-0.7,0.2-1.5,0.5-2.2,0.6c-0.6,0.1-1.2,0.2-1.9,0.3c-0.6,0-1.1,0-1.7-0.1c-0.5-0.1-1.1-0.3-1.5-0.6
				c-0.5-0.3-1-0.7-1.3-1.1s-0.4-0.8-0.4-1.2c0-0.5,0.2-0.9,0.5-1.3c0.4-0.5,0.8-0.8,1.3-1.2l-1.9-1.1l1.1-0.6l1.9,1.1
				c0.9-0.4,1.8-0.8,2.7-1s1.8-0.4,2.8-0.5L164.1,263.1z M158.7,266.5c0.4,0.2,0.9,0.3,1.4,0.3c0.7-0.1,1.3-0.2,1.9-0.4l-3-1.7
				C157.9,265.3,157.8,266,158.7,266.5L158.7,266.5z M169.2,267.4c-0.5-0.2-1-0.3-1.5-0.3c-0.7,0.1-1.4,0.2-2.1,0.5l3,1.7
				C169.8,268.5,170,267.9,169.2,267.4L169.2,267.4z"/>
			<path class="st15" d="M162.4,271c0-0.1,0-1.1,0-1.1l1.2,0.8l-0.5,0.8L162.4,271z"/>
			<polygon class="st15" points="173,271.6 173,270.6 170.4,270.8 171.9,271.8 			"/>
			<polygon class="st15" points="173.3,267.7 173.3,266.6 171.3,267.3 			"/>
			<path class="st15" d="M165.1,267.6l0.7-0.6l2.3,1.6l-0.1,0.5c0,0-1.7-0.7-1.8-0.8L165.1,267.6z"/>
			<path class="st15" d="M159,264.2l3.1,1.8l0.6-0.5l-0.4-0.5c-0.3-0.3-0.6-0.6-1-0.8c-0.2,0-1.7-0.7-1.7-0.7L159,264.2z"/>
			<polygon class="st15" points="164.1,263.1 164.1,262 162.7,261.6 162.4,262.4 162.5,262.8 			"/>
			<polygon class="st15" points="154.7,262.4 154.7,261.3 156.3,261.5 155.8,262.5 			"/>
			<path class="st15" d="M154.8,266v-1.1h1.9l-0.5,1l-0.8,0.9L154.8,266z"/>
			<path class="st17" d="M164.1,262c-0.2,0-0.5,0-0.7,0.1c-0.3,0-0.7,0.1-1.1,0.2s-0.8,0.2-1.3,0.3c-0.4,0.1-0.8,0.3-1.3,0.5
				l3.2,1.9l0.6-0.2c0.8-0.3,1.6-0.5,2.3-0.7s1.4-0.3,2.1-0.3c0.6,0,1.3,0,1.9,0.1c0.6,0.1,1.3,0.4,1.8,0.7c0.6,0.3,1,0.7,1.4,1.2
				c0.2,0.4,0.3,0.8,0.2,1.3s-0.4,0.9-0.8,1.2c-0.4,0.4-0.9,0.8-1.5,1.1l2,1.2l-1.1,0.6l-2-1.2c-1,0.5-2,0.9-3.1,1.1
				c-1.1,0.3-2.2,0.5-3.4,0.6l-1.1-1.9c0.3,0,0.6,0,0.9-0.1c0.5-0.1,0.9-0.1,1.3-0.2c0.5-0.1,1-0.2,1.6-0.4c0.5-0.2,1.1-0.3,1.6-0.6
				l-3.2-1.8l-0.4,0.1l-0.4,0.1c-0.8,0.3-1.5,0.5-2.2,0.6c-0.6,0.1-1.2,0.2-1.9,0.3c-0.6,0-1.1,0-1.7-0.2c-0.5-0.1-1.1-0.3-1.5-0.6
				c-0.5-0.3-1-0.7-1.3-1.1s-0.4-0.8-0.4-1.2c0-0.5,0.2-0.9,0.5-1.3c0.4-0.5,0.8-0.8,1.3-1.2l-1.9-1.1l1.1-0.6l1.9,1.1
				c0.9-0.4,1.8-0.8,2.7-1s1.8-0.4,2.8-0.5L164.1,262z M158.7,265.4c0.4,0.2,0.9,0.3,1.4,0.3c0.7-0.1,1.3-0.2,1.9-0.4l-3-1.7
				C157.9,264.3,157.8,264.9,158.7,265.4L158.7,265.4z M169.2,266.3c-0.5-0.3-1-0.3-1.5-0.3c-0.7,0.1-1.4,0.2-2.1,0.5l3,1.7
				C169.8,267.4,170,266.8,169.2,266.3L169.2,266.3z"/>
		</g>
		<g id="Coin-3">
			<ellipse class="st14" cx="162.7" cy="265" rx="27.8" ry="16"/>
			<polygon class="st14" points="134.9,265.3 134.9,258 140.4,262.9 			"/>
			<polygon class="st14" points="190.5,258.1 190.5,265 187.7,268 186.3,260.1 			"/>
			<ellipse class="st12" cx="162.7" cy="258.1" rx="27.8" ry="16"/>
			<path class="st15" d="M182.6,258.6c-0.3,2.7-2.2,5.4-5.8,7.4c-7.8,4.5-20.4,4.5-28.1,0c-3.6-2.1-5.5-4.7-5.8-7.4
				c-0.3-3.2,1.6-6.4,5.8-8.8c7.8-4.5,20.4-4.5,28.1,0C181,252.3,182.9,255.5,182.6,258.6z"/>
			<path class="st16" d="M182.6,258.6c-0.3,2.7-2.2,5.4-5.8,7.4c-7.8,4.5-20.4,4.5-28.1,0c-3.6-2.1-5.5-4.7-5.8-7.4
				c0.3-2.7,2.2-5.4,5.8-7.4c7.8-4.5,20.4-4.5,28.1,0C180.4,253.3,182.3,256,182.6,258.6z"/>
			<path class="st15" d="M162.4,254.9c-0.2,0-0.5,0-0.7,0.1c-0.3,0-0.7,0.1-1.1,0.2s-0.8,0.2-1.3,0.3c-0.4,0.1-0.8,0.3-1.3,0.5
				l3.2,1.8l0.6-0.2c0.8-0.3,1.6-0.5,2.3-0.7s1.4-0.3,2.1-0.3c0.6,0,1.3,0,1.9,0.1c0.6,0.1,1.3,0.4,1.8,0.7c0.6,0.3,1,0.7,1.4,1.2
				c0.2,0.4,0.3,0.8,0.2,1.3s-0.4,0.9-0.8,1.2c-0.4,0.4-0.9,0.8-1.5,1.1l2,1.2l-1.1,0.6l-2.1-1.2c-1,0.5-2,0.9-3,1.1
				c-1.1,0.3-2.2,0.5-3.4,0.6l-1.1-1.9c0.3,0,0.6,0,0.9-0.1c0.5-0.1,0.9-0.1,1.3-0.2c0.5-0.1,1-0.2,1.6-0.4c0.5-0.2,1.1-0.3,1.6-0.6
				l-3.2-1.8l-0.4,0.1l-0.4,0.1c-0.7,0.2-1.5,0.5-2.2,0.6c-0.6,0.1-1.2,0.2-1.9,0.3c-0.6,0-1.1,0-1.6-0.1s-1.1-0.3-1.5-0.6
				c-0.5-0.3-1-0.7-1.3-1.1s-0.4-0.8-0.4-1.2c0.1-0.5,0.2-0.9,0.5-1.3c0.4-0.5,0.8-0.8,1.3-1.2l-1.9-1.1l1.1-0.6l1.9,1.1
				c0.9-0.4,1.8-0.8,2.7-1s1.8-0.4,2.7-0.5L162.4,254.9z M157,258.2c0.4,0.2,0.9,0.3,1.4,0.3c0.6-0.1,1.3-0.2,1.9-0.4l-3-1.7
				C156.2,257.1,156.1,257.7,157,258.2z M167.5,259.1c-0.5-0.2-1-0.3-1.5-0.3c-0.7,0.1-1.4,0.2-2.1,0.5l3,1.7
				C168.1,260.3,168.3,259.6,167.5,259.1L167.5,259.1z"/>
			<path class="st15" d="M160.7,262.7c0-0.1,0-1.1,0-1.1l1.2,0.8l-0.5,0.8L160.7,262.7z"/>
			<polygon class="st15" points="171.3,263.4 171.3,262.3 168.7,262.5 170.2,263.6 			"/>
			<polygon class="st15" points="171.5,259.5 171.5,258.4 169.6,259.1 			"/>
			<path class="st15" d="M163.3,259.4l0.7-0.6l2.3,1.6l-0.1,0.5c0,0-1.7-0.7-1.8-0.8L163.3,259.4z"/>
			<path class="st15" d="M157.3,256l3.1,1.8l0.6-0.5l-0.4-0.5c-0.3-0.3-0.6-0.6-1-0.8c-0.2,0-1.7-0.7-1.7-0.7L157.3,256z"/>
			<polygon class="st15" points="162.4,254.9 162.4,253.8 161,253.4 160.7,254.2 160.8,254.6 			"/>
			<polygon class="st15" points="153,254.1 153,253 154.6,253.2 154.1,254.3 			"/>
			<path class="st15" d="M153.1,257.8v-1.1h1.9l-0.5,1l-0.8,0.9L153.1,257.8z"/>
			<path class="st17" d="M162.4,253.8c-0.2,0-0.5,0-0.7,0.1c-0.3,0-0.7,0.1-1.1,0.2s-0.8,0.2-1.3,0.3c-0.4,0.1-0.8,0.3-1.3,0.5
				l3.2,1.8l0.6-0.2c0.8-0.3,1.6-0.5,2.3-0.7s1.4-0.3,2.1-0.3c0.6,0,1.3,0,1.9,0.1c0.6,0.1,1.3,0.4,1.8,0.7c0.6,0.3,1,0.7,1.4,1.2
				c0.2,0.4,0.3,0.8,0.2,1.3s-0.4,0.9-0.8,1.2c-0.4,0.4-0.9,0.8-1.5,1.1l2,1.2l-1.1,0.6l-2.1-1.2c-1,0.5-2,0.9-3,1.1
				c-1.1,0.3-2.2,0.5-3.4,0.6l-1.1-1.9c0.3,0,0.6,0,0.9-0.1c0.5-0.1,0.9-0.1,1.3-0.2c0.5-0.1,1-0.2,1.6-0.4c0.5-0.2,1.1-0.3,1.6-0.6
				l-3.2-1.8l-0.4,0.1l-0.4,0.1c-0.7,0.2-1.5,0.5-2.2,0.6c-0.6,0.1-1.2,0.2-1.9,0.3c-0.6,0-1.1,0-1.6-0.1s-1.1-0.3-1.5-0.6
				c-0.5-0.3-1-0.7-1.3-1.1s-0.4-0.8-0.4-1.2c0.1-0.5,0.2-0.9,0.5-1.3c0.4-0.5,0.8-0.8,1.3-1.2l-1.8-1l1.1-0.6l1.9,1.1
				c0.9-0.4,1.8-0.8,2.7-1s1.8-0.4,2.7-0.5L162.4,253.8z M157,257.2c0.4,0.2,0.9,0.3,1.4,0.3c0.6-0.1,1.3-0.2,1.9-0.4l-3-1.7
				C156.2,256,156.1,256.6,157,257.2z M167.5,258c-0.5-0.3-1-0.3-1.5-0.3c-0.7,0.1-1.4,0.2-2.1,0.5l3,1.7
				C168.1,259.2,168.3,258.5,167.5,258L167.5,258z"/>
		</g>
		<path class="st0" d="M430.3,442.1L372,408.4c-1.6-0.9-2.1-2.9-1.2-4.5c0.3-0.5,0.7-0.9,1.2-1.2l0,0c1-0.6,2.3-0.6,3.3,0l58.3,33.6
			c1.6,0.9,2.1,2.9,1.2,4.5c-0.4,0.6-0.9,1.1-1.6,1.4l0,0C432.2,442.7,431.2,442.6,430.3,442.1z"/>
		<path class="st18" d="M405.1,421.7c-20.9-12-37.8-41.4-37.8-65.5s17-33.9,37.8-21.8s37.9,41.4,37.9,65.5S426,433.8,405.1,421.7z
			 M405.1,342.2c-17.1-9.9-31.1-1.9-31.1,17.9s13.9,43.9,31.1,53.8s31.1,1.8,31.1-17.9S422.3,352.1,405.1,342.2z"/>
		<polygon class="st18" points="373.2,334.6 380.1,330.9 379.1,335.6 		"/>
		<path class="st18" d="M425.4,427.9c0.2-0.1,7.6-4.2,7.6-4.2l-5.7-0.9L425.4,427.9z"/>
		<ellipse transform="matrix(0.866 -0.5 0.5 0.866 -136.7162 251.1519)" class="st19" cx="400.3" cy="380.7" rx="28.1" ry="48.7"/>
		<path class="st20" d="M400.3,424.4c-20.9-12-37.8-41.4-37.8-65.5s17-33.9,37.8-21.8s37.8,41.4,37.8,65.5S421.2,436.5,400.3,424.4z
			 M400.3,344.9c-17.1-9.9-31.1-1.9-31.1,17.9s13.9,43.9,31.1,53.8s31.1,1.8,31.1-17.9S417.4,354.7,400.3,344.9z"/>
		<path class="st20" d="M400.3,407.8c-12.9-7.5-23.4-25.7-23.4-40.6s10.5-21,23.4-13.5s23.4,25.7,23.4,40.6S413.2,415.3,400.3,407.8
			z M400.3,361.5c-9.2-5.3-16.7-1-16.7,9.6s7.5,23.6,16.7,28.9s16.7,1,16.7-9.6S409.5,366.8,400.3,361.5z"/>
		<path class="st20" d="M400.3,391.4c-5.1-3-9.3-10.2-9.3-16.1s4.2-8.3,9.3-5.4s9.3,10.1,9.3,16S405.4,394.4,400.3,391.4z
			 M400.3,377.8c-1.4-0.8-2.5-0.1-2.5,1.4c0.1,1.8,1,3.4,2.5,4.3c1.4,0.8,2.5,0.1,2.5-1.5C402.7,380.4,401.8,378.8,400.3,377.8z"/>
		<polygon class="st21" points="335.9,417.4 332.4,417.4 343.6,412.7 337.1,416.7 		"/>
		<ellipse transform="matrix(0.866 -0.5 0.5 0.866 -163.8388 224.3349)" class="st16" cx="336.7" cy="417.9" rx="0.7" ry="1.3"/>
		<ellipse transform="matrix(0.866 -0.5 0.5 0.866 -136.8925 251.3168)" class="st16" cx="400.5" cy="381.1" rx="0.7" ry="1.3"/>
		<polygon class="st21" points="338.2,422.4 337.4,419 346.5,413.2 346.1,414 		"/>
		<path class="st16" d="M337.4,419c0.1-0.1,63.7-36.9,63.7-36.9l-1.2-2.2l-63.8,36.9L337.4,419z"/>
		<g id="Girl_12">
			<path id="_Контур_" class="st7" d="M278.7,1.3c0.9-1.3,7.3-2.3,9.5,3.3c0.8,2.1,0.7,7.4,1.4,10.8s2.3,5.3,2.9,8
				s-0.4,7.3-6.9,8.1S274,30,272.4,27.9s-1.6-6.6,0-8.9s2.8-4.3,2.8-7.5L278.7,1.3z"/>
			<path id="_Контур_2" class="st7" d="M283,0.4c0,0-5-1.4-7.9,1.2c-2,1.9-2.8,4.7-2.1,7.3c0.4,1.6,1.2,3.7,2.4,3.8
				S283,0.4,283,0.4z"/>
			<path id="_Контур_3" class="st22" d="M284.8,13.8c0,0-0.3,5.5-0.2,5.9s2.1,0.8,2.7,1.3s-3,6-4.8,6.8s-7.4-1.3-7.8-4
				c-0.4-2.6,1.6-4.5,2.4-5.3c0.5,0,1,0,1.5,0l0.2-2.6C281.3,15,284.8,13.8,284.8,13.8z"/>
			<path id="_Контур_4" class="st22" d="M268.7,43c-1.5,2.1-3.4,4-5.5,5.7c-0.7,0.7-1.3,1.4-1.9,2.2c-1,1.1-2.2,2-3.7,2.4
				c-1.2,0.3-1.8,0.2-2,0s-0.1-0.6,0.4-0.8c0.9-0.3,1.7-0.7,2.4-1.3c0,0-1.1,0.5-1.9,0.8c-0.6,0.2-1.3,0.4-2,0.4s-1.4-0.8-0.9-1
				s1-0.3,2.1-0.7c0.6-0.2,1.1-0.5,1.6-0.8c-0.7,0.2-1.5,0.4-2.3,0.5c-0.6,0.1-1.3,0-1.9-0.2c-0.3-0.1-0.6-0.7,0.1-0.9
				c0.9-0.1,1.8-0.3,2.7-0.6c0.8-0.4,1.4-0.8,1.2-0.9s-0.7,0.2-1.5,0.1s-1.6-0.6-1.6-1s0.2-0.2,1-0.3c0.9-0.3,1.8-0.5,2.7-0.6
				c0.9,0,1.8-0.1,2.6-0.3c0.9-0.3,2.9-2.7,4.4-4.9c1.7-2.5,3-5.1,3.9-7.9c0.9-3,2-8.7,2.8-10.7s2.1-2.9,3.4-2.9
				c1.5,0,2.1,1.9,1.8,3.6C276.2,26,272.8,37.6,268.7,43z"/>
			<path id="_Контур_5" class="st19" d="M285.6,20.2c1.5,0.2,3.3,1.1,3.5,1.9c0.6,3,0.5,6.2-0.4,9.1
				c-1.3,3.5-2.8,9.9-3.6,11.4c-4,0.6-8-0.2-11.5-2.2c0,0-0.3-6.1-0.4-8.1c-4.9-4.3-0.7-9.6,3.5-13.8c0.5,0,1,0,1.5,0
				c0,0-3.7,4.4-1.1,6.9C282.7,23.7,283.8,21.2,285.6,20.2z"/>
			<path id="_Контур_6" class="st22" d="M274.6,7L274.6,7c0.5-3.5,3.1-6.2,6.7-5.9c3.9,0.3,6.8,3.6,6.5,7.5
				c-0.1,2.1-1.2,4-3,5.3c-0.1,0.5-0.3,1.1-0.6,1.5c-1.3,1.5-4.7,2.4-5.8,2.5s-1.8-0.9-2.7-2.4C273.8,12.2,274.3,8.7,274.6,7z"/>
			<path class="st7" d="M282.5,1.1c2.5,0.5,4.6,1.2,5.3,3.7c0.5,1.7,1.1,5,0.5,6.4l-0.4,1l-3.1,1.6c0,0-1.4-1.2-1-4.7
				c0-0.5-0.2-0.9-0.4-1.3c-0.2-0.3-0.3-0.7-0.4-1.1c-0.4-0.9-1.1-1.7-2-2.2c-2-0.9-4.2-0.8-6.1,0.3C276.2,1.9,279.4,0.4,282.5,1.1z
				"/>
			<path class="st23" d="M268.5,85.2c-1.3,1-3.3,0.3-3.4,0.4c-1.5,1.3-3.1,2.5-4.7,3.6c-0.8,0.6-2,1.5-1.8,2.7
				c0.4,2.2,3.9,1.5,5.2,0.8s2.4-1.8,3.6-2.5c0.9-0.6,1.8-0.8,1.9-2C269.2,87.2,268.9,86.2,268.5,85.2z"/>
			<path class="st24" d="M269.2,87.8c-0.2,1.1-1,1.4-1.9,1.9c-1.3,0.8-2.4,1.9-3.7,2.6s-4.2,1.2-5.1-0.3c0.5,2.1,3.9,1.4,5.2,0.8
				s2.4-1.8,3.6-2.5c0.9-0.6,1.8-0.8,1.9-2C269.2,88.1,269.2,88,269.2,87.8z"/>
			<path class="st23" d="M262.2,81.7c-1.2,1-3,0.4-3,0.5c-1.4,1.2-2.8,2.3-4.3,3.3c-0.7,0.6-1.9,1.4-1.7,2.5c0.4,2,3.6,1.4,4.8,0.8
				s2.2-1.6,3.3-2.3c0.8-0.5,1.6-0.8,1.7-1.8C262.9,83.6,262.7,82.6,262.2,81.7z"/>
			<path class="st24" d="M262.9,84.2c-0.1,1-0.9,1.3-1.7,1.7c-1.2,0.7-2.2,1.8-3.4,2.4s-3.9,1.1-4.6-0.3c0.4,1.9,3.5,1.3,4.7,0.7
				s2.2-1.6,3.3-2.3c0.8-0.5,1.6-0.8,1.7-1.8C263,84.5,263,84.3,262.9,84.2z"/>
			<path class="st22" d="M280,43.9c-3.5,0.5-7-0.1-10.3-1.5c0.1,1.1,0.1,2,0.1,2c-4.2,3-12.5,7.9-13.1,11.3
				c0.5,10.8,2.2,26.3,2.7,26.5c1.3,0.6,2.2,0.5,2.8-0.1c0,0,2.6-9.2,1.9-22.6c0,0,14.6-6.5,15.5-10c0.4-1.4,0.6-2.9,0.4-4.4
				C280.1,44.8,280,44.4,280,43.9z"/>
			<path class="st22" d="M284.9,42.5c-2.8,1.2-5.8,1.7-8.9,1.2c0,1.5,0.2,4.2,0.2,4.2c-4.2,3-12.5,7.9-13.1,11.3
				c0.5,10.8,1.6,26.5,2,26.7c1.1,0.5,2.5,0.3,3.5-0.4c0,0,2.6-9.1,1.9-22.5c0-0.3,12.5-6.4,14.1-8s1.9-4,1.9-6.3
				C286.3,46.5,285.8,44.4,284.9,42.5z"/>
			<path class="st7" d="M287.9,44.8c0,0,4.6,8.2-3.1,12.4c-8.1,4.5-13.1,5.5-13.1,5.5l-1.2,0.3c0.4,2.8,0.4,5.7,0,8.5
				c0,0-5.8,2-13.2-4.5l-2.4-7.9l-0.3-2.1c-0.3-1.5,0.2-3,1.2-4c1.8-1.6,7.4-5.7,10.9-8.1s6.3-4.6,6.3-4.6l0.6-0.6
				c0,0,4.1,3.3,11.7,2.2C286.3,42.7,287.2,43.7,287.9,44.8z"/>
			<path id="_Контур_7" class="st22" d="M283.3,57c0.7-0.6,1.5-1.2,2.2-1.8c0.8-0.4,1.6-1,2.3-1.6c0.7-0.7,1.8-3.7,2.3-6.6
				c0.5-3.2,0.4-6.6-0.2-9.8c-1-3.9-2.3-7.6-3.9-11.3c-1-2.2-0.5-3.5,0.5-4.5c1.1-1.1,2.3-1.1,3.6,1.9c1.8,4.2,3.2,8.7,4.1,13.2
				c0.5,3.3,0.5,6.7-0.1,10c-0.5,2.9-1.4,5.7-2.6,8.4c-0.3,0.8-0.4,1.4-0.9,3c-0.4,1.6-1.3,3-2.4,4.2c-1,0.9-1.5,1.1-1.8,1
				s-0.3-0.5,0.1-1c0.7-0.7,1.3-1.5,1.7-2.5c0,0-0.8,1.1-1.4,1.7c-0.5,0.5-1.1,1-1.7,1.4s-1.6-0.1-1.2-0.5s0.8-0.8,1.7-1.7
				c0.4-0.5,0.8-1,1.1-1.6c-0.6,0.6-1.2,1.1-1.9,1.6c-0.5,0.4-1.1,0.7-1.8,0.7c-0.3,0-0.8-0.4-0.2-0.9c0.8-0.6,1.6-1.2,2.2-2
				s0.9-1.4,0.7-1.4s-0.5,0.5-1.3,0.9s-1.7,0.2-1.9-0.2S282.6,57.5,283.3,57z"/>
			<path class="st25" d="M292.2,27.6c0,0-2.8,2.5-5.9,2l-1.2-5.2c0,0-0.8-2.8,1.5-3.8S291.1,22.2,292.2,27.6z"/>
			<path class="st25" d="M276.8,18.4c0,0-3-0.9-6.3,5.8l1.2,0.7C273.2,22.6,274.9,20.5,276.8,18.4z"/>
			<g id="_Группа_">
				<g id="_Группа_2">
					<path id="_Контур_8" class="st19" d="M255.8,47.5l10.8-6.2c0.2-0.1,0.4-0.1,0.6,0l19,11l-11.1,6.4L255.8,47.5z"/>
					<path class="st7" d="M275.4,56.1l0.8,0.5c0.1,0,0.1,0.1,0,0.2l-0.8,0.5c-0.1,0-0.2,0-0.3,0l-0.8-0.5c-0.1,0-0.1-0.1,0-0.2
						l0.8-0.5C275.2,56.1,275.3,56.1,275.4,56.1z"/>
					<path class="st7" d="M274.2,55.4l0.8,0.5c0.1,0,0.1,0.1,0,0.2l-0.8,0.5c-0.1,0-0.2,0-0.3,0l-0.8-0.5c-0.1,0-0.1-0.1,0-0.2
						l0.8-0.5C274,55.4,274.1,55.4,274.2,55.4z"/>
					<path class="st7" d="M273,54.8l0.8,0.5c0.1,0,0.1,0.1,0,0.2L273,56c-0.1,0-0.2,0-0.3,0l-0.8-0.5c-0.1,0-0.1-0.1,0-0.2l0.8-0.5
						C272.8,54.7,272.9,54.7,273,54.8z"/>
					<path class="st7" d="M271.9,54.1l0.8,0.5c0.1,0,0,0.1,0,0.2l-0.8,0.5c-0.1,0-0.2,0-0.3,0l-0.8-0.5c-0.1,0-0.1-0.1,0-0.2
						l0.8-0.5C271.7,54,271.8,54,271.9,54.1z"/>
					<path class="st7" d="M270.7,53.4l0.8,0.5c0.1,0,0.1,0.1,0,0.2l-0.8,0.5c-0.1,0-0.2,0-0.3,0l-0.8-0.5c-0.1,0,0-0.1,0-0.2
						l0.8-0.5C270.5,53.3,270.6,53.4,270.7,53.4z"/>
					<path class="st7" d="M269.5,52.7l0.8,0.5c0.1,0,0.1,0.1,0,0.2l-0.8,0.5c-0.1,0-0.2,0-0.3,0l-0.8-0.5c-0.1,0-0.1-0.1,0-0.2
						l0.8-0.5C269.3,52.7,269.4,52.7,269.5,52.7z"/>
					<path class="st7" d="M268.3,52.1l0.8,0.5c0.1,0,0.1,0.1,0,0.2l-0.8,0.5c-0.1,0-0.2,0-0.3,0l-0.8-0.5c-0.1,0-0.1-0.1,0-0.2
						l0.8-0.5C268.2,52,268.3,52,268.3,52.1z"/>
					<path class="st7" d="M267.2,51.4l0.8,0.5c0.1,0,0.1,0.1,0,0.2l-0.8,0.5c-0.1,0-0.2,0-0.3,0l-0.8-0.5c-0.1,0-0.1-0.1,0-0.2
						l0.8-0.5C267,51.3,267.1,51.3,267.2,51.4z"/>
					<path class="st7" d="M266,50.7l0.8,0.5c0.1,0,0.1,0.1,0,0.2l-0.8,0.5c-0.1,0-0.2,0-0.3,0l-0.8-0.5c-0.1,0-0.1-0.1,0-0.2
						l0.8-0.5C265.8,50.7,265.9,50.7,266,50.7z"/>
					<path class="st7" d="M264.8,50l0.8,0.5c0.1,0,0.1,0.1,0,0.2l-0.8,0.5c-0.1,0-0.2,0-0.3,0l-0.8-0.5c-0.1,0-0.1-0.1,0-0.2
						l0.8-0.5C264.6,50,264.7,50,264.8,50z"/>
					<path class="st7" d="M263.6,49.3l0.8,0.5c0.1,0,0.1,0.1,0,0.2l-0.8,0.5c-0.1,0-0.2,0-0.3,0l-0.8-0.5c-0.1,0-0.1-0.1,0-0.2
						l0.8-0.5C263.5,49.3,263.6,49.3,263.6,49.3z"/>
					<path class="st7" d="M262.5,48.7l0.8,0.5c0.1,0,0,0.1,0,0.2l-0.8,0.5c-0.1,0-0.2,0-0.3,0l-0.8-0.5c-0.1,0-0.1-0.1,0-0.2
						l0.8-0.5C262.3,48.6,262.4,48.6,262.5,48.7z"/>
					<path class="st7" d="M261.3,48l0.8,0.5c0.1,0,0.1,0.1,0,0.2l-0.8,0.5c-0.1,0-0.2,0-0.3,0l-0.8-0.5c-0.1,0-0.1-0.1,0-0.2L261,48
						C261.1,47.9,261.2,47.9,261.3,48z"/>
					<path class="st7" d="M259.6,47l1.4,0.8c0.1,0,0.1,0.1,0,0.2l-0.8,0.5c-0.1,0-0.2,0-0.3,0l-1.4-0.8c-0.1,0-0.1-0.1,0-0.2
						l0.8-0.5C259.4,47,259.5,47,259.6,47z"/>
					<path class="st7" d="M274.8,54.5l0.8,0.5c0.1,0,0.1,0.1,0,0.2l-0.8,0.5c-0.1,0-0.2,0-0.3,0l-0.8-0.5c-0.1,0-0.1-0.1,0-0.2
						l0.8-0.5C274.6,54.4,274.7,54.4,274.8,54.5z"/>
					<path class="st7" d="M273.6,53.8l0.8,0.5c0.1,0,0.1,0.1,0,0.2l-0.8,0.5c-0.1,0-0.2,0-0.3,0l-0.8-0.5c-0.1,0,0-0.1,0-0.2
						l0.8-0.5C273.4,53.7,273.5,53.7,273.6,53.8z"/>
					<path class="st7" d="M272.4,53.1l0.8,0.5c0.1,0,0.1,0.1,0,0.2l-0.8,0.5c-0.1,0-0.2,0-0.3,0l-0.8-0.5c-0.1,0-0.1-0.1,0-0.2
						l0.8-0.5C272.2,53.1,272.3,53.1,272.4,53.1z"/>
					<path class="st7" d="M271.2,52.4l0.8,0.5c0.1,0,0.1,0.1,0,0.2l-0.8,0.5c-0.1,0-0.2,0-0.3,0l-0.8-0.5c-0.1,0-0.1-0.1,0-0.2
						l0.8-0.5C271.1,52.4,271.2,52.4,271.2,52.4z"/>
					<path class="st7" d="M270.1,51.8l0.8,0.5c0.1,0,0.1,0.1,0,0.2l-0.8,0.5c-0.1,0-0.2,0-0.3,0l-0.8-0.5c-0.1,0,0-0.1,0-0.2
						l0.8-0.5C269.9,51.7,270,51.7,270.1,51.8z"/>
					<path class="st7" d="M268.9,51.1l0.8,0.5c0.1,0,0.1,0.1,0,0.2l-0.8,0.5c-0.1,0-0.2,0-0.3,0l-0.8-0.5c-0.1,0-0.1-0.1,0-0.2
						l0.8-0.5C268.7,51,268.8,51,268.9,51.1z"/>
					<path class="st7" d="M267.7,50.4l0.8,0.5c0.1,0,0.1,0.1,0,0.2l-0.8,0.5c-0.1,0-0.2,0-0.3,0l-0.8-0.5c-0.1,0-0.1-0.1,0-0.2
						l0.8-0.5C267.6,50.3,267.7,50.4,267.7,50.4z"/>
					<path class="st7" d="M266.6,49.7l0.8,0.5c0.1,0,0.1,0.1,0,0.2l-0.8,0.5c-0.1,0-0.2,0-0.3,0l-0.8-0.5c-0.1,0,0-0.1,0-0.2
						l0.8-0.5C266.4,49.7,266.5,49.7,266.6,49.7z"/>
					<path class="st7" d="M265.4,49l0.8,0.5c0.1,0,0.1,0.1,0,0.2l-0.8,0.5c-0.1,0-0.2,0-0.3,0l-0.8-0.5c-0.1,0-0.1-0.1,0-0.2
						l0.8-0.5C265.2,49,265.3,49,265.4,49z"/>
					<path class="st7" d="M264.2,48.4l0.8,0.5c0.1,0,0.1,0.1,0,0.2l-0.8,0.5c-0.1,0-0.2,0-0.3,0l-0.8-0.5c-0.1,0-0.1-0.1,0-0.2
						l0.8-0.5C264,48.3,264.1,48.3,264.2,48.4z"/>
					<path class="st7" d="M263,47.7l0.8,0.5c0.1,0,0.1,0.1,0,0.2l-0.8,0.5c-0.1,0-0.2,0-0.3,0l-0.8-0.5c-0.1,0,0-0.1,0-0.2l0.8-0.5
						C262.8,47.7,262.9,47.7,263,47.7z"/>
					<path class="st7" d="M261.9,47l0.8,0.5c0.1,0,0.1,0.1,0,0.2l-0.8,0.5c-0.1,0-0.2,0-0.3,0l-0.8-0.5c-0.1,0-0.1-0.1,0-0.2
						l0.8-0.5C261.7,47,261.8,47,261.9,47z"/>
					<path class="st7" d="M275.9,55.1l1.4,0.8c0.1,0,0.1,0.1,0,0.2l-0.8,0.5c-0.1,0-0.2,0-0.3,0l-1.4-0.8c-0.1,0-0.1-0.1,0-0.2
						l0.8-0.5C275.8,55.1,275.8,55.1,275.9,55.1z"/>
					<path class="st7" d="M259.6,47l0.8,0.5c0.1,0,0.2,0,0.2,0l0.8-0.5c0,0,0.1-0.1,0-0.1l0,0h-0.1c-0.1,0-0.1-0.1,0-0.1l0.9-0.5
						c0.1,0,0.1-0.1,0-0.1l-0.5-0.3c-0.1,0-0.2,0-0.3,0l-0.8,0.5l-0.2,0.1l-0.1,0.1l-0.1,0.1l-0.7,0.4C259.6,46.9,259.6,47,259.6,47
						z"/>
					<path class="st7" d="M279.9,53.5l0.8,0.5c0.1,0,0.1,0.1,0,0.2l-0.8,0.5c-0.1,0-0.2,0-0.3,0l-0.8-0.5c-0.1,0-0.1-0.1,0-0.2
						l0.8-0.5C279.7,53.5,279.8,53.5,279.9,53.5z"/>
					<path class="st7" d="M278.7,52.8l0.8,0.5c0.1,0,0.1,0.1,0,0.2l-0.8,0.5c-0.1,0-0.2,0-0.3,0l-0.8-0.5c-0.1,0-0.1-0.1,0-0.2
						l0.8-0.5C278.6,52.8,278.6,52.8,278.7,52.8z"/>
					<path class="st7" d="M277.6,52.1l0.8,0.5c0.1,0,0.1,0.1,0,0.2l-0.8,0.5c-0.1,0-0.2,0-0.3,0l-0.8-0.5c-0.1,0-0.1-0.1,0-0.2
						l0.8-0.5C277.4,52.1,277.5,52.1,277.6,52.1z"/>
					<path class="st7" d="M267.6,46.4l0.8,0.5c0.1,0,0.1,0.1,0,0.2l-0.8,0.5c-0.1,0-0.2,0-0.3,0l-0.8-0.5c-0.1,0,0-0.1,0-0.2
						l0.8-0.5C267.4,46.4,267.5,46.4,267.6,46.4z"/>
					<path class="st7" d="M266.5,45.7l0.8,0.5c0.1,0,0,0.1,0,0.2l-0.8,0.5c-0.1,0-0.2,0-0.3,0l-0.8-0.5c-0.1,0-0.1-0.1,0-0.2
						l0.8-0.5C266.3,45.7,266.4,45.7,266.5,45.7z"/>
					<path class="st7" d="M265.3,45l0.8,0.5c0.1,0,0.1,0.1,0,0.2l-0.8,0.5c-0.1,0-0.2,0-0.3,0l-0.8-0.5c-0.1,0-0.1-0.1,0-0.2L265,45
						C265.1,45,265.2,45,265.3,45z"/>
					<path class="st7" d="M264.1,44.4l0.8,0.5c0.1,0,0.1,0.1,0,0.2l-0.8,0.5c-0.1,0-0.2,0-0.3,0L263,45c-0.1,0-0.1-0.1,0-0.2
						l0.8-0.5C263.9,44.3,264,44.3,264.1,44.4z"/>
					<path class="st7" d="M276.1,51.3l1.1,0.7c0.1,0,0.1,0.1,0,0.2l-0.8,0.5c-0.1,0-0.2,0-0.3,0l-1.2-0.6c-0.1,0-0.1-0.1,0-0.2
						l0.8-0.5C275.9,51.2,276,51.2,276.1,51.3z"/>
					<path class="st7" d="M268.8,47.1l1.1,0.7c0.1,0,0.1,0.1,0,0.2l-0.8,0.5c-0.1,0-0.2,0-0.3,0l-1.1-0.7c-0.1,0-0.1-0.1,0-0.2
						l0.8-0.5C268.6,47,268.7,47,268.8,47.1z"/>
					<path class="st7" d="M270.3,47.9l5.5,3.2c0.1,0,0.1,0.1,0,0.2l-0.8,0.5c-0.1,0-0.2,0-0.3,0l-5.5-3.2c-0.1,0-0.1-0.1,0-0.2
						l0.8-0.5C270.1,47.9,270.2,47.9,270.3,47.9z"/>
					<path class="st7" d="M275.6,53.6l0.8,0.5c0.1,0,0.1,0.1,0,0.2l-0.8,0.5c-0.1,0-0.2,0-0.3,0l-0.8-0.5c-0.1,0,0-0.1,0-0.2
						l0.8-0.5C275.4,53.6,275.5,53.6,275.6,53.6z"/>
					<path class="st7" d="M274.4,52.9l0.8,0.5c0.1,0,0.1,0.1,0,0.2l-0.8,0.5c-0.1,0-0.2,0-0.3,0l-0.8-0.5c-0.1,0,0-0.1,0-0.2
						l0.8-0.5C274.2,52.9,274.3,52.9,274.4,52.9z"/>
					<path class="st7" d="M273.2,52.3l0.8,0.5c0.1,0,0.1,0.1,0,0.2l-0.8,0.5c-0.1,0-0.2,0-0.3,0l-0.8-0.5c-0.1,0,0-0.1,0-0.2
						l0.8-0.5C273.1,52.2,273.2,52.2,273.2,52.3z"/>
					<path class="st7" d="M272.1,51.6l0.8,0.5c0.1,0,0.1,0.1,0,0.2l-0.8,0.5c-0.1,0-0.2,0-0.3,0l-0.8-0.5c-0.1,0,0-0.1,0-0.2
						l0.8-0.5C271.9,51.6,272,51.6,272.1,51.6z"/>
					<path class="st7" d="M270.9,50.9l0.8,0.5c0.1,0,0.1,0.1,0,0.2l-0.8,0.5c-0.1,0-0.2,0-0.3,0l-0.8-0.5c-0.1,0,0-0.1,0-0.2
						l0.8-0.5C270.7,50.9,270.8,50.9,270.9,50.9z"/>
					<path class="st7" d="M269.7,50.2l0.8,0.5c0.1,0,0.1,0.1,0,0.2l-0.8,0.5c-0.1,0-0.2,0-0.3,0l-0.8-0.5c-0.1,0,0-0.1,0-0.2
						l0.8-0.5C269.5,50.2,269.6,50.2,269.7,50.2z"/>
					<path class="st7" d="M268.6,49.6l0.8,0.5c0.1,0,0.1,0.1,0,0.2l-0.8,0.5c-0.1,0-0.2,0-0.3,0l-0.8-0.5c-0.1,0,0-0.1,0-0.2
						l0.8-0.5C268.4,49.5,268.5,49.5,268.6,49.6z"/>
					<path class="st7" d="M267.4,48.9l0.8,0.5c0.1,0,0.1,0.1,0,0.2l-0.8,0.5c-0.1,0-0.2,0-0.3,0l-0.8-0.5c-0.1,0,0-0.1,0-0.2
						l0.8-0.5C267.2,48.8,267.3,48.8,267.4,48.9z"/>
					<path class="st7" d="M266.2,48.2l0.8,0.5c0.1,0,0.1,0.1,0,0.2l-0.8,0.5c-0.1,0-0.2,0-0.3,0l-0.8-0.5c-0.1,0-0.1-0.1,0-0.2
						l0.8-0.5C266,48.2,266.1,48.2,266.2,48.2z"/>
					<path class="st7" d="M265,47.5l0.8,0.5c0.1,0,0.1,0.1,0,0.2l-0.8,0.5c-0.1,0-0.2,0-0.3,0l-0.8-0.5c-0.1,0-0.1-0.1,0-0.2
						l0.8-0.5C264.9,47.5,265,47.5,265,47.5z"/>
					<path class="st7" d="M263.9,46.9l0.8,0.5c0.1,0,0.1,0.1,0,0.2l-0.8,0.5c-0.1,0-0.2,0-0.3,0l-0.8-0.5c-0.1,0-0.1-0.1,0-0.2
						l0.8-0.5C263.7,46.8,263.8,46.8,263.9,46.9z"/>
					<path class="st7" d="M262.7,46.2l0.8,0.5c0.1,0,0.1,0.1,0,0.2l-0.8,0.5c-0.1,0-0.2,0-0.3,0l-0.8-0.5c-0.1,0-0.1-0.1,0-0.2
						l0.8-0.5C262.5,46.1,262.6,46.1,262.7,46.2z"/>
					<path class="st7" d="M276.8,54.3l1.7,1c0.1,0,0.1,0.1,0,0.2l-0.8,0.5c-0.1,0-0.2,0-0.3,0l-1.7-1c-0.1,0-0.1-0.1,0-0.2l0.8-0.5
						C276.6,54.3,276.7,54.3,276.8,54.3z"/>
					<path class="st7" d="M277.3,53.3l0.8,0.5c0.1,0,0.1,0.1,0,0.2l-0.8,0.5c-0.1,0-0.2,0-0.3,0l-0.8-0.5c-0.1,0-0.1-0.1,0-0.2
						l0.8-0.5C277.1,53.3,277.2,53.3,277.3,53.3z"/>
					<path class="st7" d="M276.1,52.6l0.8,0.5c0.1,0,0.1,0.1,0,0.2l-0.8,0.5c-0.1,0-0.2,0-0.3,0l-0.8-0.5c-0.1,0-0.1-0.1,0-0.2
						l0.8-0.5C275.9,52.6,276,52.6,276.1,52.6z"/>
					<path class="st7" d="M275,52l0.8,0.5c0.1,0,0.1,0.1,0,0.2L275,53c-0.1,0-0.2,0-0.3,0l-0.8-0.5c-0.1,0-0.1-0.1,0-0.2l0.8-0.5
						C274.8,51.9,274.9,51.9,275,52z"/>
					<path class="st7" d="M273.8,51.3l0.8,0.5c0.1,0,0.1,0.1,0,0.2l-0.8,0.5c-0.1,0-0.2,0-0.3,0l-0.8-0.5c-0.1,0-0.1-0.1,0-0.2
						l0.8-0.5C273.6,51.2,273.7,51.2,273.8,51.3z"/>
					<path class="st7" d="M272.6,50.6l0.8,0.5c0.1,0,0.1,0.1,0,0.2l-0.8,0.5c-0.1,0-0.2,0-0.3,0l-0.8-0.5c-0.1,0-0.1-0.1,0-0.2
						l0.8-0.5C272.4,50.6,272.5,50.6,272.6,50.6z"/>
					<path class="st7" d="M271.4,49.9l0.8,0.5c0.1,0,0.1,0.1,0,0.2l-0.8,0.5c-0.1,0-0.2,0-0.3,0l-0.8-0.5c-0.1,0-0.1-0.1,0-0.2
						l0.8-0.5C271.3,49.9,271.4,49.9,271.4,49.9z"/>
					<path class="st7" d="M270.3,49.3l0.8,0.5c0.1,0,0.1,0.1,0,0.2l-0.8,0.5c-0.1,0-0.2,0-0.3,0l-0.8-0.5c-0.1,0-0.1-0.1,0-0.2
						l0.8-0.5C270.1,49.2,270.2,49.2,270.3,49.3z"/>
					<path class="st7" d="M269.1,48.6l0.8,0.5c0.1,0,0.1,0.1,0,0.2l-0.8,0.5c-0.1,0-0.2,0-0.3,0l-0.8-0.5c-0.1,0-0.1-0.1,0-0.2
						l0.8-0.5C268.9,48.5,269,48.5,269.1,48.6z"/>
					<path class="st7" d="M267.9,47.9l0.8,0.5c0.1,0,0.1,0.1,0,0.2L268,49c-0.1,0-0.2,0-0.3,0l-0.8-0.5c-0.1,0-0.1-0.1,0-0.2
						l0.8-0.5C267.8,47.9,267.9,47.9,267.9,47.9z"/>
					<path class="st7" d="M266.8,47.2l0.8,0.5c0.1,0,0.1,0.1,0,0.2l-0.8,0.5c-0.1,0-0.2,0-0.3,0l-0.8-0.5c-0.1,0-0.1-0.1,0-0.2
						l0.8-0.5C266.6,47.2,266.7,47.2,266.8,47.2z"/>
					<path class="st7" d="M265.6,46.5l0.8,0.5c0.1,0,0.1,0.1,0,0.2l-0.8,0.5c-0.1,0-0.2,0-0.3,0l-0.8-0.5c-0.1,0-0.1-0.1,0-0.2
						l0.8-0.5C265.4,46.5,265.5,46.5,265.6,46.5z"/>
					<path class="st7" d="M263,45l2.3,1.3c0.1,0,0.1,0.1,0,0.2l-0.8,0.5c-0.1,0-0.2,0-0.3,0l-2.3-1.3c-0.1,0-0.1-0.1,0-0.2l0.8-0.5
						C262.8,45,262.9,45,263,45z"/>
					<path class="st7" d="M278.5,54l1.1,0.7c0.1,0,0.1,0.1,0,0.2l-0.8,0.5c-0.1,0-0.2,0-0.3,0l-1.1-0.7c-0.1,0-0.1-0.1,0-0.2
						l0.8-0.5C278.3,54,278.4,54,278.5,54z"/>
					<path class="st7" d="M258.4,47.7l16.6,9.6c0.1,0,0.1,0.1,0,0.2l-0.4,0.2c-0.1,0-0.2,0-0.3,0l-16.6-9.6c-0.1,0-0.1-0.1,0-0.2
						l0.4-0.2C258.2,47.6,258.3,47.6,258.4,47.7z"/>
					<polygon id="_Контур_9" class="st26" points="278,48.3 277.9,48.4 275.1,50 270,47.1 269.9,47 272.9,45.3 					"/>
					<polygon id="_Контур_10" class="st27" points="277.9,48.4 275.1,50 270,47.1 272.9,45.4 					"/>
					<path id="_Контур_11" class="st27" d="M286.2,52.2v0.3c0,0.4-0.2,0.7-0.5,0.9l-10.1,5.8c-0.3,0.2-0.7,0.2-1,0l-18.3-10.5
						c-0.3-0.2-0.5-0.5-0.5-0.9v-0.3l19.3,11.1L286.2,52.2z"/>
					<path id="_Контур_12" class="st27" d="M275.1,58.6v0.7c-0.2,0-0.4,0-0.5-0.1l-18.2-10.5c-0.3-0.2-0.5-0.5-0.5-0.9v-0.3
						L275.1,58.6z"/>
					<path id="_Контур_13" class="st19" d="M274.8,58.7c-0.4,0.1-0.7,0.1-1.1-0.1l-18.2-10.5c-0.3-0.2-0.5-0.5-0.6-0.9
						l-2-11.9c0-0.1,0-0.1,0-0.2c0-0.3,0.1-0.6,0.4-0.9l18.9,10.9c0.2,0.1,0.4,0.4,0.5,0.6L274.8,58.7z"/>
					<path id="_Контур_14" class="st27" d="M275.1,58.6l-0.1,0.1l-0.2,0.1L272.7,46c0-0.3-0.2-0.5-0.5-0.6l-18.9-10.9
						c0.1-0.1,0.2-0.1,0.3-0.2l18.9,10.9c0.2,0.1,0.4,0.4,0.5,0.6L275.1,58.6z"/>
				</g>
			</g>
		</g>
		<polygon class="st13" points="46.2,364.3 26,352.6 46.2,340.9 66.5,352.6 		"/>
		<polygon class="st13" points="78.3,345.6 58.1,333.9 78.3,322.2 98.6,333.9 		"/>
		<polygon class="st28" points="90.3,263.3 70.1,251.6 90.3,239.9 110.6,251.6 		"/>
		<polygon class="st28" points="90.3,338.8 70.1,327.1 70.1,251.6 90.3,263.3 		"/>
		<polygon class="st29" points="90.3,338.8 70.1,327.1 70.1,251.6 90.3,263.3 		"/>
		<polygon class="st28" points="110.6,327.1 90.3,338.8 90.3,263.3 110.6,251.6 		"/>
		<polygon class="st30" points="110.6,327.1 90.3,338.8 90.3,263.3 110.6,251.6 		"/>
		<polygon class="st20" points="60,301.8 39.7,290.1 60,278.4 80.2,290.1 		"/>
		<polygon class="st20" points="60,356.3 39.7,344.6 39.7,290.1 60,301.8 		"/>
		<polygon class="st29" points="60,356.3 39.7,344.6 39.7,290.1 60,301.8 		"/>
		<polygon class="st20" points="80.2,344.6 60,356.3 60,301.8 80.2,290.1 		"/>
		<polygon class="st30" points="80.2,344.6 60,356.3 60,301.8 80.2,290.1 		"/>
		<polygon class="st13" points="20.3,379.7 0,368 20.3,356.3 40.5,368 		"/>
		<polygon class="st31" points="27.6,341.7 7.3,330 27.6,318.3 47.9,330 		"/>
		<polygon class="st31" points="27.6,375.2 7.3,363.5 7.3,330 27.6,341.7 		"/>
		<polygon class="st29" points="27.6,375.2 7.3,363.5 7.3,330 27.6,341.7 		"/>
		<polygon class="st31" points="47.9,363.5 27.6,375.2 27.6,341.7 47.9,330 		"/>
		<polygon class="st30" points="47.9,363.5 27.6,375.2 27.6,341.7 47.9,330 		"/>
		<path class="st0" d="M236.3,453.7l-13-18.7l-6.3-2.8c-4.8-1.1-9.7-1.7-14.6-1.7c-5.9,5.9-42.9,7.5-57.6,0.2
			c-16.7-8.3-25.4-18.4-28.1-24.6c-4.8-11,4.4-23.9,4.4-23.9c-25.2,14.6-25.2,38.3,0,52.8c23.6,13.6,61.2,14.5,86.6,2.6l0,0
			L236.3,453.7z"/>
		<polygon class="st0" points="307.5,500 220.3,449.6 235.1,441 322.4,491.4 		"/>
		<path class="st1" d="M124.2,430.4c-25.2-14.6-25.2-38.3,0-52.8s66.3-14.6,91.5,0s25.2,38.3,0,52.8S149.4,445,124.2,430.4z
			 M204.5,384.1c-19.1-11-50.1-11-69.2,0s-19.1,28.9,0,39.9s50.1,11,69.2,0S223.6,395.1,204.5,384.1L204.5,384.1z"/>
		<polygon class="st1" points="105.3,405.1 105.3,393.9 116.7,399.5 		"/>
		<path class="st1" d="M137.4,423.6c0.5,0.6,2.1,11.5,34.4,11.5s30.9-13,30.9-13s-30.5,4.2-30.9,4.2S137.4,423.6,137.4,423.6z"/>
		<polygon class="st1" points="234.6,393.9 234.6,404 225.3,398.1 		"/>
		<path class="st1" d="M140.6,369.6c9.4-3.6,19.3-5.6,29.4-5.6c9.8,0,19.5,2.1,28.4,6.1l-2.1,3.4h-54L140.6,369.6z"/>
		<ellipse class="st32" cx="170" cy="397.8" rx="48.2" ry="27.8"/>
		<path class="st2" d="M124.2,420.4c-25.2-14.6-25.2-38.3,0-52.8s66.3-14.6,91.5,0s25.2,38.3,0,52.8S149.4,434.9,124.2,420.4z
			 M204.5,374c-19.1-11-50.1-11-69.2,0s-19.1,28.9,0,39.9s50.1,11,69.2,0S223.6,385,204.5,374z"/>
		<polygon class="st2" points="230.8,436.3 208.9,423.6 221.6,416.3 243.5,429 		"/>
		<polygon class="st1" points="230.8,446.5 208.9,433.8 208.9,423.6 230.8,436.2 		"/>
		<polygon class="st21" points="310.3,498.2 223,447.8 223,430.7 310.3,481.1 		"/>
		<polygon class="st33" points="310.3,481.1 223,430.7 237.9,422.2 325.2,472.6 		"/>
		<path class="st34" d="M310.3,498.2c0.9-0.1,14.8-8.4,14.8-8.4v-17.3l-14.8,8.6V498.2z"/>
		<g id="Men_11">
			<path id="_Контур_15" class="st22" d="M61.8,272.5c1.5,2.6,3.3,5.1,5.3,7.3c0.6,0.7,5-1,4.1-1.5s-3.8-4.5-5.3-7.2
				c-1.2-3.2-2.3-6.5-3.1-9.9c-0.9-3.3-1.7-8.1-2.4-10.4c-0.4-1.7-1.7-3.1-3.4-3.4c-1.6-0.4-2.6,0.1-2.3,2
				C55.2,252.7,57.9,265.9,61.8,272.5z"/>
			<path class="st23" d="M59.2,324c1.4,1.1,3.4,0.1,3.5,0.2c1.6,1.5,3.3,2.9,5.1,4.2c0.9,0.7,2.2,1.6,2,2.9
				c-0.4,2.3-4.1,1.6-5.5,0.9s-2.5-1.9-3.9-2.7c-0.9-0.6-1.9-0.9-2-2.1C58.3,326.7,59,324,59.2,324z"/>
			<path class="st24" d="M58.4,326.9c0.2,1.1,1.1,1.5,2,2c1.3,0.8,2.5,2,3.9,2.7s4.5,1.3,5.4-0.4c-0.5,2.2-4.1,1.5-5.5,0.8
				s-2.5-1.9-3.9-2.7c-0.9-0.6-1.9-0.9-2-2.1C58.3,327.2,58.3,327.1,58.4,326.9z"/>
			<path class="st23" d="M73.2,316c1.4,1.1,3.8-0.1,3.9,0c1.4,1.4,2.9,2.8,4.5,4.1c0.8,0.7,2.2,1.6,2,2.9c-0.4,2.3-4.1,1.6-5.5,0.9
				s-2.5-1.9-3.9-2.7c-0.9-0.6-1.9-0.9-2-2.1C72.2,318,72.6,316.9,73.2,316z"/>
			<path class="st24" d="M72.1,318.7c0.2,1.1,1.1,1.5,2,2c1.3,0.8,2.5,2,3.9,2.7s4.5,1.3,5.4-0.4c-0.5,2.3-4.1,1.6-5.5,0.9
				s-2.5-1.9-3.9-2.7c-1-0.6-1.9-0.9-2-2.1C72.1,319.1,72.1,318.9,72.1,318.7z"/>
			<path id="_Контур_16" class="st7" d="M40.9,280c-1.5,9.5,2.7,13,8.2,15.1c3.9,1.5,9.6,3.7,9.6,3.7s-0.1,2.1-0.1,6.8
				c0,4.1,0.5,19.2,0.5,19.2c1.3,0.7,2.9,0.7,4.2,0c0,0,2.2-11.5,2.7-16.7c0.6-7,1.7-11.7,1.4-13.2c-0.3-1.3-8-5.1-10.5-7.2L73,293
				c-0.3,1.8-0.5,3.5-0.5,5.3C72.7,303.9,73,316,73,316s2.2,1.6,4.1,0c0,0,4.1-24,3.6-27.2c-0.5-3-14.7-9.2-17.2-11.3
				c-0.9-0.7-2-1-3.2-0.9L40.9,280z"/>
			<g id="_Группа_3">
				<g id="_Группа_4">
					<path id="_Контур_17" class="st19" d="M79.6,284l-10.8-6.3c-0.2-0.1-0.4-0.1-0.6,0l-19,11l11.2,6.4L79.6,284z"/>
					<path class="st7" d="M59.8,292.8l-0.8,0.5c-0.1,0-0.1,0.1,0,0.1l0.8,0.5c0.1,0,0.2,0,0.3,0l0.8-0.5c0.1,0,0.1-0.1,0-0.2
						l-0.8-0.5C59.9,292.8,59.8,292.8,59.8,292.8z"/>
					<path class="st7" d="M60.9,292.1l-0.8,0.5c-0.1,0-0.1,0.1,0,0.1l0.8,0.5c0.1,0,0.2,0,0.3,0l0.8-0.5c0.1,0,0-0.1,0-0.1l-0.8-0.5
						C61.1,292.1,61,292.1,60.9,292.1z"/>
					<path class="st7" d="M62.1,291.5l-0.8,0.5c-0.1,0-0.1,0.1,0,0.1l0.8,0.5c0.1,0,0.2,0,0.3,0l0.8-0.5c0.1,0,0.1-0.1,0-0.2
						l-0.8-0.5C62.3,291.4,62.2,291.4,62.1,291.5z"/>
					<path class="st7" d="M63.3,290.8l-0.8,0.5c-0.1,0-0.1,0.1,0,0.1l0.8,0.5c0.1,0,0.2,0,0.3,0l0.8-0.5c0.1,0,0.1-0.1,0-0.1
						l-0.8-0.5C63.4,290.8,63.4,290.8,63.3,290.8z"/>
					<path class="st7" d="M64.4,290.1l-0.8,0.5c-0.1,0-0.1,0.1,0,0.1l0.8,0.5c0.1,0,0.2,0,0.3,0l0.8-0.5c0.1,0,0.1-0.1,0-0.1
						l-0.8-0.5C64.6,290.1,64.5,290.1,64.4,290.1z"/>
					<path class="st7" d="M65.6,289.5l-0.8,0.5c-0.1,0-0.1,0.1,0,0.2l0.8,0.5c0.1,0,0.2,0,0.3,0l0.8-0.5c0.1,0,0.1-0.1,0-0.2
						l-0.8-0.5C65.8,289.4,65.7,289.4,65.6,289.5z"/>
					<path class="st7" d="M66.8,288.8l-0.8,0.5c-0.1,0-0.1,0.1,0,0.1l0.8,0.5c0.1,0,0.2,0,0.3,0l0.8-0.5c0.1,0,0.1-0.1,0-0.1
						l-0.8-0.5C67,288.7,66.9,288.7,66.8,288.8z"/>
					<path class="st7" d="M68,288.1l-0.8,0.5c-0.1,0-0.1,0.1,0,0.1l0.8,0.5c0.1,0,0.2,0,0.3,0l0.8-0.5c0.1,0,0.1-0.1,0-0.1l-0.8-0.5
						C68.2,288.1,68.1,288.1,68,288.1z"/>
					<path class="st7" d="M69.1,287.4l-0.8,0.5c-0.1,0-0.1,0.1,0,0.1l0.8,0.5c0.1,0,0.2,0,0.3,0l0.8-0.5c0.1,0,0.1-0.1,0-0.1
						l-0.8-0.5C69.3,287.4,69.2,287.4,69.1,287.4z"/>
					<path class="st7" d="M70.3,286.7l-0.8,0.5c-0.1,0-0.1,0.1,0,0.1l0.8,0.5c0.1,0,0.2,0,0.3,0l0.8-0.5c0.1,0,0-0.1,0-0.1l-0.8-0.5
						C70.5,286.7,70.4,286.7,70.3,286.7z"/>
					<path class="st7" d="M71.5,286.1l-0.8,0.5c-0.1,0-0.1,0.1,0,0.2l0.8,0.5c0.1,0,0.2,0,0.3,0l0.8-0.5c0.1,0,0.1-0.1,0-0.1
						l-0.8-0.5C71.6,286,71.5,286,71.5,286.1z"/>
					<path class="st7" d="M72.6,285.4l-0.8,0.5c-0.1,0-0.1,0.1,0,0.1l0.8,0.5c0.1,0,0.2,0,0.3,0l0.8-0.5c0.1,0,0.1-0.1,0-0.1
						l-0.8-0.5C72.8,285.4,72.7,285.4,72.6,285.4z"/>
					<path class="st7" d="M73.8,284.7l-0.8,0.5c-0.1,0-0.1,0.1,0,0.1l0.8,0.5c0.1,0,0.2,0,0.3,0l0.8-0.5c0.1,0,0.1-0.1,0-0.1
						l-0.8-0.5C74,284.7,73.9,284.7,73.8,284.7z"/>
					<path class="st7" d="M75.5,283.7l-1.4,0.8c-0.1,0-0.1,0.1,0,0.1l0.8,0.5c0.1,0,0.2,0,0.3,0l1.4-0.8c0.1,0,0.1-0.1,0-0.1
						l-0.8-0.5C75.7,283.7,75.6,283.7,75.5,283.7z"/>
					<path class="st7" d="M60.4,291.2l-0.8,0.5c-0.1,0-0.1,0.1,0,0.1l0.8,0.5c0.1,0,0.2,0,0.3,0l0.8-0.5c0.1,0,0.1-0.1,0-0.1
						l-0.8-0.5C60.5,291.1,60.4,291.1,60.4,291.2z"/>
					<path class="st7" d="M61.5,290.5l-0.8,0.5c-0.1,0-0.1,0.1,0,0.1l0.8,0.5c0.1,0,0.2,0,0.3,0l0.8-0.5c0.1,0,0.1-0.1,0-0.1
						l-0.8-0.5C61.7,290.5,61.6,290.5,61.5,290.5z"/>
					<path class="st7" d="M62.7,289.8l-0.8,0.5c-0.1,0,0,0.1,0,0.1l0.8,0.5c0.1,0,0.2,0,0.3,0l0.8-0.5c0.1,0,0.1-0.1,0-0.1l-0.8-0.5
						C62.9,289.8,62.8,289.8,62.7,289.8z"/>
					<path class="st7" d="M63.9,289.1l-0.8,0.5c-0.1,0-0.1,0.1,0,0.1l0.8,0.5c0.1,0,0.2,0,0.3,0l0.8-0.5c0.1,0,0.1-0.1,0-0.2
						l-0.8-0.5C64.1,289.1,64,289.1,63.9,289.1z"/>
					<path class="st7" d="M65,288.5l-0.8,0.5c-0.1,0-0.1,0.1,0,0.2l0.8,0.5c0.1,0,0.2,0,0.3,0l0.8-0.5c0.1,0,0.1-0.1,0-0.1l-0.8-0.5
						C65.2,288.4,65.1,288.4,65,288.5z"/>
					<path class="st7" d="M66.2,287.8l-0.8,0.5c-0.1,0,0,0.1,0,0.1l0.8,0.5c0.1,0,0.2,0,0.3,0l0.8-0.5c0.1,0,0.1-0.1,0-0.2l-0.8-0.5
						C66.4,287.7,66.3,287.7,66.2,287.8z"/>
					<path class="st7" d="M67.4,287.1l-0.8,0.5c-0.1,0-0.1,0.1,0,0.1l0.8,0.5c0.1,0,0.2,0,0.3,0l0.8-0.5c0.1,0,0.1-0.1,0-0.1
						l-0.8-0.5C67.6,287.1,67.5,287.1,67.4,287.1z"/>
					<path class="st7" d="M68.6,286.4l-0.8,0.5c-0.1,0-0.1,0.1,0,0.1l0.8,0.5c0.1,0,0.2,0,0.3,0l0.8-0.5c0.1,0,0.1-0.1,0-0.1
						l-0.8-0.5C68.7,286.4,68.6,286.4,68.6,286.4z"/>
					<path class="st7" d="M69.7,285.8l-0.8,0.5c-0.1,0-0.1,0.1,0,0.2l0.8,0.5c0.1,0,0.2,0,0.3,0l0.8-0.5c0.1,0,0.1-0.1,0-0.1
						l-0.8-0.5C69.9,285.7,69.8,285.7,69.7,285.8z"/>
					<path class="st7" d="M70.9,285.1l-0.8,0.5c-0.1,0-0.1,0.1,0,0.1l0.8,0.5c0.1,0,0.2,0,0.3,0l0.8-0.5c0.1,0,0.1-0.1,0-0.1
						l-0.8-0.5C71.1,285,71,285,70.9,285.1z"/>
					<path class="st7" d="M72.1,284.4l-0.8,0.5c-0.1,0-0.1,0.1,0,0.1l0.8,0.5c0.1,0,0.2,0,0.3,0l0.8-0.5c0.1,0,0.1-0.1,0-0.1
						l-0.8-0.5C72.3,284.4,72.2,284.4,72.1,284.4z"/>
					<path class="st7" d="M73.3,283.7l-0.8,0.5c-0.1,0-0.1,0.1,0,0.1l0.8,0.5c0.1,0,0.2,0,0.3,0l0.8-0.5c0.1,0,0.1-0.1,0-0.1
						l-0.8-0.5C73.4,283.7,73.3,283.7,73.3,283.7z"/>
					<path class="st7" d="M59.2,291.9l-1.4,0.8c-0.1,0-0.1,0.1,0,0.1l0.8,0.5c0.1,0,0.2,0,0.3,0l1.4-0.8c0.1,0,0.1-0.1,0-0.2
						l-0.8-0.5C59.4,291.8,59.3,291.8,59.2,291.9z"/>
					<path class="st7" d="M75.5,283.7l-0.8,0.5c-0.1,0-0.2,0-0.3,0l-0.8-0.5c-0.1,0-0.1-0.1,0-0.1h0.1c0.1,0,0.1-0.1,0-0.1l-0.9-0.5
						c-0.1,0-0.1-0.1,0-0.1l0.5-0.3c0.1,0,0.2,0,0.2,0l0.8,0.5l0.2,0.1l0.1,0.1l0.1,0.1l0.7,0.4C75.5,283.6,75.5,283.6,75.5,283.7z"
						/>
					<path class="st7" d="M55.2,290.2l-0.8,0.5c-0.1,0-0.1,0.1,0,0.1l0.8,0.5c0.1,0,0.2,0,0.3,0l0.8-0.5c0.1,0,0.1-0.1,0-0.1
						l-0.8-0.5C55.4,290.2,55.3,290.2,55.2,290.2z"/>
					<path class="st7" d="M56.4,289.5l-0.8,0.5c-0.1,0-0.1,0.1,0,0.1l0.8,0.5c0.1,0,0.2,0,0.3,0l0.8-0.5c0.1,0,0.1-0.1,0-0.1
						l-0.8-0.5C56.6,289.5,56.5,289.5,56.4,289.5z"/>
					<path class="st7" d="M57.5,288.9l-0.8,0.5c-0.1,0-0.1,0.1,0,0.1l0.8,0.5c0.1,0,0.2,0,0.3,0l0.8-0.5c0.1,0,0.1-0.1,0-0.1
						l-0.8-0.5C57.7,288.8,57.6,288.8,57.5,288.9z"/>
					<path class="st7" d="M67.5,283.1l-0.8,0.5c-0.1,0-0.1,0.1,0,0.1l0.8,0.5c0.1,0,0.2,0,0.3,0l0.8-0.5c0.1,0,0.1-0.1,0-0.1
						l-0.8-0.5C67.7,283.1,67.6,283.1,67.5,283.1z"/>
					<path class="st7" d="M68.7,282.4l-0.8,0.5c-0.1,0-0.1,0.1,0,0.1l0.8,0.5c0.1,0,0.2,0,0.3,0l0.8-0.5c0.1,0,0.1-0.1,0-0.1
						l-0.8-0.5C68.8,282.4,68.7,282.4,68.7,282.4z"/>
					<path class="st7" d="M69.8,281.8l-0.8,0.5c-0.1,0-0.1,0.1,0,0.1l0.8,0.5c0.1,0,0.2,0,0.3,0l0.8-0.5c0.1,0,0-0.1,0-0.1l-0.8-0.5
						C70,281.7,69.9,281.7,69.8,281.8z"/>
					<path class="st7" d="M71,281.1l-0.8,0.5c-0.1,0,0,0.1,0,0.1l0.8,0.5c0.1,0,0.2,0,0.3,0l0.8-0.5c0.1,0,0.1-0.1,0-0.1l-0.8-0.5
						C71.2,281.1,71.1,281.1,71,281.1z"/>
					<path class="st7" d="M59,288l-1.1,0.6c-0.1,0-0.1,0.1,0,0.1l0.8,0.5c0.1,0,0.2,0,0.3,0l1.1-0.6c0.1,0,0.1-0.1,0-0.2l-0.8-0.5
						C59.2,288,59.1,288,59,288z"/>
					<path class="st7" d="M66.3,283.8l-1.1,0.6c-0.1,0-0.1,0.1,0,0.1L66,285c0.1,0,0.2,0,0.3,0l1.1-0.6c0.1,0,0.1-0.1,0-0.2
						l-0.8-0.5C66.5,283.7,66.4,283.7,66.3,283.8z"/>
					<path class="st7" d="M64.9,284.6l-5.5,3.2c-0.1,0-0.1,0.1,0,0.1l0.8,0.5c0.1,0,0.2,0,0.3,0l5.5-3.2c0.1,0,0.1-0.1,0-0.1
						l-0.8-0.5C65,284.6,64.9,284.6,64.9,284.6z"/>
					<path class="st7" d="M59.5,290.3l-0.8,0.5c-0.1,0-0.1,0.1,0,0.1l0.8,0.5c0.1,0,0.2,0,0.3,0l0.8-0.5c0.1,0,0.1-0.1,0-0.1
						l-0.8-0.5C59.7,290.3,59.6,290.3,59.5,290.3z"/>
					<path class="st7" d="M60.7,289.6l-0.8,0.5c-0.1,0-0.1,0.1,0,0.1l0.8,0.5c0.1,0,0.2,0,0.3,0l0.8-0.5c0.1,0,0.1-0.1,0-0.1
						l-0.8-0.5C60.9,289.6,60.8,289.6,60.7,289.6z"/>
					<path class="st7" d="M61.9,289l-0.8,0.5c-0.1,0-0.1,0.1,0,0.1l0.8,0.5c0.1,0,0.2,0,0.3,0l0.8-0.5c0.1,0,0.1-0.1,0-0.1l-0.8-0.5
						C62.1,289,62,289,61.9,289z"/>
					<path class="st7" d="M63,288.3l-0.8,0.5c-0.1,0-0.1,0.1,0,0.1l0.8,0.5c0.1,0,0.2,0,0.3,0l0.8-0.5c0.1,0,0.1-0.1,0-0.1l-0.8-0.5
						C63.2,288.3,63.1,288.3,63,288.3z"/>
					<path class="st7" d="M64.2,287.6l-0.8,0.5c-0.1,0-0.1,0.1,0,0.1l0.8,0.5c0.1,0,0.2,0,0.3,0l0.8-0.5c0.1,0,0.1-0.1,0-0.1
						l-0.8-0.5C64.4,287.6,64.3,287.6,64.2,287.6z"/>
					<path class="st7" d="M65.4,287l-0.8,0.5c-0.1,0-0.1,0.1,0,0.1l0.8,0.5c0.1,0,0.2,0,0.3,0l0.8-0.5c0.1,0,0.1-0.1,0-0.1l-0.8-0.5
						C65.6,287,65.5,287,65.4,287z"/>
					<path class="st7" d="M66.6,286.3l-0.8,0.5c-0.1,0-0.1,0.1,0,0.1l0.8,0.5c0.1,0,0.2,0,0.3,0l0.8-0.5c0.1,0,0.1-0.1,0-0.2
						l-0.8-0.5C66.7,286.2,66.6,286.2,66.6,286.3z"/>
					<path class="st7" d="M67.7,285.6l-0.8,0.5c-0.1,0-0.1,0.1,0,0.1l0.8,0.5c0.1,0,0.2,0,0.3,0l0.8-0.5c0.1,0,0.1-0.1,0-0.1
						l-0.8-0.5C67.9,285.6,67.8,285.6,67.7,285.6z"/>
					<path class="st7" d="M68.9,284.9l-0.8,0.5c-0.1,0-0.1,0.1,0,0.2l0.8,0.5c0.1,0,0.2,0,0.3,0l0.8-0.5c0.1,0,0.1-0.1,0-0.2
						l-0.8-0.5C69.1,284.9,69,284.9,68.9,284.9z"/>
					<path class="st7" d="M70.1,284.3l-0.8,0.5c-0.1,0-0.1,0.1,0,0.1l0.8,0.5c0.1,0,0.2,0,0.3,0l0.8-0.5c0.1,0,0.1-0.1,0-0.1
						l-0.8-0.5C70.2,284.2,70.2,284.2,70.1,284.3z"/>
					<path class="st7" d="M71.2,283.6l-0.8,0.5c-0.1,0-0.1,0.1,0,0.2l0.8,0.5c0.1,0,0.2,0,0.3,0l0.8-0.5c0.1,0,0.1-0.1,0-0.1
						l-0.8-0.5C71.4,283.5,71.3,283.5,71.2,283.6z"/>
					<path class="st7" d="M72.4,282.9l-0.8,0.5c-0.1,0-0.1,0.1,0,0.1l0.8,0.5c0.1,0,0.2,0,0.3,0l0.8-0.5c0.1,0,0.1-0.1,0-0.1
						l-0.8-0.5C72.6,282.9,72.5,282.9,72.4,282.9z"/>
					<path class="st7" d="M58.4,291l-1.7,1c-0.1,0-0.1,0.1,0,0.2l0.8,0.5c0.1,0,0.2,0,0.3,0l1.7-1c0.1,0,0.1-0.1,0-0.1l-0.8-0.5
						C58.6,291,58.5,291,58.4,291z"/>
					<path class="st7" d="M57.8,290l-0.8,0.5c-0.1,0-0.1,0.1,0,0.1l0.8,0.5c0.1,0,0.2,0,0.3,0l0.8-0.5c0.1,0,0.1-0.1,0-0.1l-0.8-0.5
						C58,290,57.9,290,57.8,290z"/>
					<path class="st7" d="M59,289.3l-0.8,0.5c-0.1,0-0.1,0.1,0,0.1l0.8,0.5c0.1,0,0.2,0,0.3,0l0.8-0.5c0.1,0,0.1-0.1,0-0.1l-0.8-0.5
						C59.2,289.3,59.1,289.3,59,289.3z"/>
					<path class="st7" d="M60.2,288.7l-0.8,0.5c-0.1,0,0,0.1,0,0.1l0.8,0.5c0.1,0,0.2,0,0.3,0l0.8-0.5c0.1,0,0.1-0.1,0-0.1l-0.8-0.5
						C60.3,288.6,60.2,288.6,60.2,288.7z"/>
					<path class="st7" d="M61.3,288l-0.8,0.5c-0.1,0,0,0.1,0,0.1l0.8,0.5c0.1,0,0.2,0,0.3,0l0.8-0.5c0.1,0,0.1-0.1,0-0.1l-0.8-0.5
						C61.5,288,61.4,288,61.3,288z"/>
					<path class="st7" d="M62.5,287.3l-0.8,0.5c-0.1,0,0,0.1,0,0.1l0.8,0.5c0.1,0,0.2,0,0.3,0l0.8-0.5c0.1,0,0.1-0.1,0-0.1l-0.8-0.5
						C62.7,287.3,62.6,287.3,62.5,287.3z"/>
					<path class="st7" d="M63.7,286.6l-0.8,0.5c-0.1,0-0.1,0.1,0,0.1l0.8,0.5c0.1,0,0.2,0,0.3,0l0.8-0.5c0.1,0,0.1-0.1,0-0.1
						l-0.8-0.5C63.8,286.6,63.8,286.6,63.7,286.6z"/>
					<path class="st7" d="M64.8,286l-0.8,0.5c-0.1,0-0.1,0.1,0,0.1l0.8,0.5c0.1,0,0.2,0,0.3,0l0.8-0.5c0.1,0,0.1-0.1,0-0.2l-0.8-0.5
						C65,286,64.9,286,64.8,286z"/>
					<path class="st7" d="M66,285.3l-0.8,0.5c-0.1,0-0.1,0.1,0,0.1l0.8,0.5c0.1,0,0.2,0,0.3,0l0.8-0.5c0.1,0,0.1-0.1,0-0.1l-0.8-0.5
						C66.2,285.2,66.1,285.2,66,285.3z"/>
					<path class="st7" d="M67.2,284.6l-0.8,0.5c-0.1,0-0.1,0.1,0,0.1l0.8,0.5c0.1,0,0.2,0,0.3,0l0.8-0.5c0.1,0,0.1-0.1,0-0.2
						l-0.8-0.5C67.4,284.6,67.3,284.6,67.2,284.6z"/>
					<path class="st7" d="M68.3,283.9l-0.8,0.5c-0.1,0-0.1,0.1,0,0.1l0.8,0.5c0.1,0,0.2,0,0.3,0l0.8-0.5c0.1,0,0.1-0.1,0-0.1
						l-0.8-0.5C68.5,283.9,68.4,283.9,68.3,283.9z"/>
					<path class="st7" d="M69.5,283.3l-0.8,0.5c-0.1,0-0.1,0.1,0,0.2l0.8,0.5c0.1,0,0.2,0,0.3,0l0.8-0.5c0.1,0,0.1-0.1,0-0.2
						l-0.8-0.5C69.7,283.2,69.6,283.2,69.5,283.3z"/>
					<path class="st7" d="M72.1,281.8l-2.3,1.3c-0.1,0-0.1,0.1,0,0.1l0.8,0.5c0.1,0,0.2,0,0.3,0l2.3-1.3c0.1,0,0.1-0.1,0-0.1
						l-0.8-0.5C72.3,281.7,72.2,281.7,72.1,281.8z"/>
					<path class="st7" d="M56.7,290.7l-1.1,0.6c-0.1,0,0,0.1,0,0.1l0.8,0.5c0.1,0,0.2,0,0.3,0l1.1-0.7c0.1,0,0.1-0.1,0-0.1l-0.8-0.5
						C56.8,290.6,56.7,290.6,56.7,290.7z"/>
					<path class="st7" d="M76.7,284.4L60.1,294c-0.1,0-0.1,0.1,0,0.1l0.4,0.2c0.1,0,0.2,0,0.3,0l16.6-9.6c0.1,0,0.1-0.1,0-0.1
						l-0.4-0.2C76.9,284.4,76.8,284.4,76.7,284.4z"/>
					<polygon id="_Контур_18" class="st26" points="57.3,284.8 57.4,284.9 60.3,286.5 65.4,283.6 65.5,283.5 62.5,281.8 					
						"/>
					<polygon id="_Контур_19" class="st27" points="57.4,284.9 60.3,286.5 65.4,283.6 62.5,281.9 					"/>
					<path id="_Контур_20" class="st27" d="M49.1,288.7v0.3c0,0.4,0.2,0.7,0.5,0.9l10.1,5.8c0.2,0.1,0.3,0.1,0.5,0.1
						s0.4,0,0.5-0.1L79,285.1c0.3-0.2,0.5-0.5,0.5-0.9V284l-19.3,11.1L49.1,288.7z"/>
					<path id="_Контур_21" class="st19" d="M60.5,295.3c0.4,0.1,0.7,0.1,1.1-0.1l18.2-10.5c0.3-0.2,0.5-0.5,0.6-0.9l2-11.9
						c0-0.1,0-0.1,0-0.2c0-0.3-0.1-0.6-0.4-0.9l-18.9,10.9c-0.2,0.1-0.4,0.4-0.4,0.6L60.5,295.3z"/>
					<path id="_Контур_22" class="st27" d="M60.3,295.1l0.1,0.1l0.2,0.1l2.2-12.9c0.1-0.3,0.2-0.5,0.4-0.6l19-10.9
						c-0.1-0.1-0.2-0.1-0.3-0.2l-19,11c-0.2,0.1-0.4,0.4-0.4,0.6L60.3,295.1z"/>
				</g>
			</g>
			<path id="_Контур_23" class="st22" d="M46.5,244.2c0,0,0.2,4.5,0.1,4.9s-2.1,1.7-2.7,2.2s3.1,4.1,4.9,5s7.5-1.4,7.6-4.2
				s-1-5.2-1.8-5.3S46.5,244.2,46.5,244.2z"/>
			<path id="_Контур_24" class="st19" d="M46,249.9c0,0,3.3,4.9,7.9,5.4c1.5-1.4,1.6-6.5-0.4-8.1c0,0,1.8-1.5,3.1-1.2
				c1.4,0.8,2.4,2.1,2.8,3.6c1.2,3.4,1.7,6.9,1.6,10.5c-0.1,4.8,0,17,0,17c-0.5,2.9-2.3,5.5-4.8,7c-3.3,1.9-7.2,2.4-10.9,1.5
				c-2.3-0.5-3.2-1.8-4-3.5c0.2-3.4,1.5-10.3,1-14.5s-1.5-7.4-1.7-10.8s0.5-3.4,2.2-4.6C43.8,251.3,44.9,250.6,46,249.9z"/>
			<path id="_Контур_25" class="st22" d="M51.3,288.9c-0.8-0.5-1.7-1-2.6-1.5c-0.8-0.3-1.6-0.7-2.2-1.3
				c-0.8-0.8-2.1-3.8-3.1-6.7c-0.9-3.3-1.3-6.7-1.1-10.1c0.4-4.1,1.9-9.8,2.2-12.1s-0.4-3.3-1.5-4.1c-1.3-1-3.1-0.6-4,2.7
				c-1.2,4.6-1.9,9.2-2.1,13.9c0,3.5,0.5,7,1.6,10.3c1,2.8,2.3,5.6,3.9,8.1c0.5,0.8,0.6,1.4,1.3,3s1.7,2.9,3,4c1.2,0.8,1.7,1,2,0.8
				s0.3-0.6-0.2-1c-0.8-0.6-1.5-1.4-2.1-2.3c0,0,1,1,1.7,1.6c0.6,0.5,1.2,0.9,1.9,1.2c0.7,0.3,1.6-0.3,1.1-0.7s-1-0.7-1.9-1.5
				c-0.5-0.4-1-0.9-1.4-1.5c0.7,0.5,1.4,1,2.1,1.4c0.6,0.4,1.3,0.5,1.9,0.5c0.4,0,0.8-0.5,0.1-1c-0.9-0.5-1.8-1.1-2.5-1.7
				c-0.7-0.7-1.2-1.4-1-1.4s0.6,0.4,1.5,0.7s1.8,0,1.9-0.4S52.1,289.3,51.3,288.9z"/>
			<path id="_Контур_26" class="st22" d="M56.8,237.5L56.8,237.5c-0.5-3.5-3.1-6.2-6.7-6c-3.9,0.2-6.8,3.6-6.5,7.4
				c0.1,2.1,1.2,4.1,3,5.3c0.1,0.5,0.3,1,0.6,1.5c1.3,1.5,5.2,2.4,6.3,2.3c1.4-0.1,2.5-1.1,2.9-2.4C57.4,242.9,57,239.2,56.8,237.5z
				"/>
			<path class="st7" d="M46.5,244.2L46.5,244.2l0.3-3.1c0,0-2.5-6.5,3.4-5.2c3.9,0.8,4.9,1.2,6.1-1.4s-3-5-8-4.3
				c-3.6,0.4-6.2,3.4-6.2,7C42.3,239.1,42.8,243,46.5,244.2z"/>
			<path class="st25" d="M36.4,261.8c0,0,3.2,3.2,7,2.3c0.5-0.4,1.9-7.9,1.9-7.9s0-4.2-3.2-4.1S36.4,261.8,36.4,261.8z"/>
			<path class="st25" d="M60.8,255.6c0.9,0,1.8-0.4,2.4-1.1c-0.1-1.7-2.3-8.1-6.6-8.5c1.2,0.8,2.1,1.9,2.7,3.3
				C59.9,251.3,60.4,253.4,60.8,255.6z"/>
		</g>
	</g>
</g>
<g>
	<path class="st35" d="M314.5,237.2c0,0,10.4,8.7,25.3-3.2c10.7-8.8,20.2-3.8,25.5-0.8s13,4.8,27.6,31.3c0,0,4.8,8.3,12.6,12.8
		s11.6,2.3,17.8-7s10.2-19.6,21.6-12.9v93.7l-131.6-75.9v-38.7L314.5,237.2z"/>
	<line class="st8" x1="365.1" y1="233.7" x2="365.1" y2="305"/>
	<line class="st8" x1="405.4" y1="278.8" x2="405.4" y2="328.2"/>
	<ellipse transform="matrix(0.866 -0.5 0.5 0.866 -67.9341 213.8533)" class="st7" cx="365.1" cy="233.7" rx="2.5" ry="4.4"/>
	<ellipse transform="matrix(0.867 -0.4983 0.4983 0.867 -69.4425 257.0358)" class="st7" cx="446.8" cy="258.6" rx="2.5" ry="4.4"/>
	<ellipse transform="matrix(0.867 -0.4983 0.4983 0.867 -84.93 239.9848)" class="st7" cx="407.1" cy="279.1" rx="2.5" ry="4.4"/>
	<ellipse transform="matrix(0.866 -0.5 0.5 0.866 -76.3157 188.3954)" class="st7" cx="313.4" cy="236.6" rx="2.5" ry="4.4"/>
</g>
<g>
	<path class="st36" d="M433.9,199l12.9-7.4c0,0,1.2-0.2,1.2-3s0-35.1,0-35.1l-12.7,6.8L433.9,199z"/>
	<path class="st37" d="M448,153.5l-12.7,6.8l-47.1-26.2l1.5-4.7l12.6-7.4c0,0,41.9,23.7,43.4,25.2
		C447.2,148.8,448.3,152.1,448,153.5z"/>
	<path class="st38" d="M402.3,108.7c1.4-1.2,6.6-3.9,7.6-4.3c3.1-0.5,8.4-1.2,16.8,6.2c8.3,7.4,13.6,20,14.1,26.7
		c-1.9,1-6.9,3.7-6.9,3.7l-16.1-25.7L402.3,108.7z"/>
	<path class="st38" d="M410.3,119.8c-0.1,1.6,0,11,0,11c-0.3,1.5-1.7,2.8-3.2,3c-1.6,0.3-4-0.1-4-0.1l-1.8-9.3L410.3,119.8z"/>
	<polygon class="st39" points="402.8,125 402.3,118.2 412.5,116.5 410.3,120.1 	"/>
	<path class="st2" d="M403.1,133.7c0,0,0.1-8.9,0.5-10.4s5.1-8.6,13-1.8c0.4,0.4,7.1,5.6,9,14.5c0.6,4.4,0.4,10.3,0.4,11.3
		c0.6,1.3,2.5,3.7,7.9,4.1c0-4.3,0.3-9.2,0-10.6c-0.3-1.4-2.3-16.9-14.5-27.3s-20.9-5-23.1,1.8c-1.3,5.8-1.2,14.3-1.2,14.3
		C395.6,131.1,398.4,133.3,403.1,133.7z"/>
	<path class="st38" d="M440.9,137.2l-6.9,3.7v10.6c0,0,3.6,0.7,5.5-0.7c1.6-1.1,1.6-1.9,1.6-1.9L440.9,137.2z"/>
	<ellipse class="st36" cx="411.6" cy="164.8" rx="12.4" ry="16.7"/>
	<path class="st37" d="M410.1,172.1c0,0.7,0.8,2.4,2.9,3.4c1.6,0.8,2.7,1.5,2.7,1.5l1.3,1.9l-2.9,1.1l-7.6-4.8c0,0-0.8-1.2,0-1.5
		S410.1,172.1,410.1,172.1z"/>
	<path class="st37" d="M410.1,153c-0.6,1.1-2.1,5.2,0.3,9c0.1,2.1,0,10.7,0,10.7l-3,2.1l-8.1-14.2l4.6-10.4L410.1,153z"/>
	<path class="st40" d="M430.8,152.9l-41.4-23.6c-1.9,1.1-1.8,3.5-1.8,3.5s-0.2,31.7,0,35.5c0.3,3.5,2.2,5.6,2.2,5.6
		s39.3,22.9,42.2,24.4c2,1.7,3.2-0.6,3.2-0.6s0-37.7,0-40.5C434.9,154.6,430.8,152.9,430.8,152.9z M415.7,166.4c0,0-0.2,9.7,0,11
		c-0.4,1-2.4,0.6-2.4,0.6s-4-2.6-4.9-3.2c-0.9-0.6-0.6-1.4-0.6-1.4v-11.2c0,0-1.4-2.1-1.7-5.4c-0.3-4,4.7-6.2,9,0
		C418.5,163,415.7,166.4,415.7,166.4z"/>
</g>
<path class="st41" d="M631.6,173.2c0,0-1.8,1.8-1.9,3.1c-0.1,1.3-0.4,8.5,1.7,10c0.8,0,2.2-2.9,2.7-4c0.5-1.2,1.6-4.9,1.9-5.6
	c0.4-0.7,1.2-3.2,1.2-3.2S632.5,172.1,631.6,173.2z"/>
<g>
	<path class="st42" d="M406.4,246.3c0.3,0.4,0.4,0.9,0.6,1.4c1.2-1.5,2.1-4.6,0.5-6.4C405,238.6,404.9,244.3,406.4,246.3z"/>
	<g>
		<g>
			<g>
				<g>
					<path class="st43" d="M382.7,240.4l-0.7-1.2l-1.6-1c0,0,0-0.4,0.6-0.2l1.3,0.8l0.9,1.3L382.7,240.4z"/>
					<path class="st43" d="M382.6,239.8l-0.7-1.2l-1.6-1c0,0,0-0.4,0.6-0.2l1.3,0.8l0.8,1.3L382.6,239.8z"/>
					<path class="st44" d="M383.3,238.6l0.8,1.4l1.1,1.7l-0.6,0.9l-1.5-1.4l-0.7-0.8l-1-1.1L381,239c0,0,0.2-0.3,0.8,0.1l1.1,0.9
						l-0.4-1.2l-1.5-1.3c0,0-0.6-0.9-0.1-0.8l2.3,1.5L383.3,238.6z"/>
				</g>
				<path class="st44" d="M391.1,255.1c0,0-5.1-10.3-6.5-12.4c0,0-0.1-1.6,0.6-0.9c1.6,1.5,8.4,11,8.7,12.1
					C394.1,254.9,391.1,255.1,391.1,255.1z"/>
			</g>
			<g>
				<path class="st44" d="M403,259.6v-0.9c0,0-8.9-6.8-11.3-7s-0.8,2.3-0.7,2.8c0.1,0.5,9.7,9.4,9.7,9.4L403,259.6z"/>
				<path class="st45" d="M393,251.6l11.6,7.5c2.7,2.3,0.7,4.9,0.7,4.9c-1.6,2.1-4.2,0.3-4.2,0.3l-10.3-8.8c0,0-1.5-1.4-0.7-3.7
					C390,251.8,390.8,250.2,393,251.6z"/>
			</g>
			<polygon class="st5" points="384.1,242.7 383.3,241.6 384.7,240.4 385.5,241.4 			"/>
			<path class="st45" d="M390.1,254.7c0,0-4.3-7.3-6.4-12.3c0,0,0.8-1,1.5-1.3c0,0,7.4,9.3,9.2,12.9
				C394.4,254,391.4,256.7,390.1,254.7z"/>
		</g>
		<path d="M401.6,322.7c0,0-0.5,1.6-1,1.9s-2.5,0.4-2.5,0.4l-1.1-0.2c0,0-0.8,0.3,1.3,1.6c2.1,1.3,5.9,0.6,5.9,0.6l-0.8-3.9
			L401.6,322.7z"/>
		<path d="M413.1,331.2c0.4-0.5,1.3-3.6,1.3-3.6l1.8,0.5l1.1,4.1c0,0,0.2,0.7-0.2,0.8c0,0-2.3,0.1-4.2-1.4
			C412.9,331.6,412.9,331.5,413.1,331.2z"/>
		<path class="st46" d="M402.9,275.5l-2.1-15.8c0,0-0.8-2.5,0.8-3.3l6.2-2l4.4,0.8l7.6,6.4l-5.5,16.5L402.9,275.5z"/>
		<path class="st45" d="M414.4,278.1c0,0,1.3,3.6,1.4,11.1c0,0-10.1,0.8-13.1-3.3l0.1-10.5L414.4,278.1z"/>
		<g>
			<path class="st45" d="M407.6,287.1c-0.1,2.5,1.7,4.9,4,5.5s4.2-0.9,4.3-3.4c0.1-2.5-1.7-5-4-5.6
				C409.6,283.1,407.7,284.7,407.6,287.1z"/>
			<path class="st45" d="M415.9,289.8l0.7,19c0,0-2,4.2-5.4,0.3l-3.3-20C407.8,289.2,409.8,283.1,415.9,289.8z"/>
		</g>
		<path class="st45" d="M416.5,308.9c0,0,1,3.8,0.5,9.7v11.2l-3.7-1.1l-2.1-19.4C411.2,309.3,413.8,303.8,416.5,308.9z"/>
		<g>
			<path class="st45" d="M402.8,286c-0.3,2.4,0.5,4.6,2.7,5.4s4.3-0.5,4.5-2.9c0.3-2.4-1.3-5-3.5-5.8
				C404.3,282,403.1,283.6,402.8,286z"/>
			<path class="st45" d="M409,290.8l-2.4,16.5c0,0-4.4,0.8-5.1-2.3c0,0,0.3-12.8,1.2-19C402.8,286,408.3,284.5,409,290.8z"/>
		</g>
		<path class="st45" d="M406.7,306.6c0,0,0.6,2.6-0.2,6.9l-1.7,12l-3.8-1.4l0.6-19.8C401.6,304.3,404,302.3,406.7,306.6z"/>
		<g>
			<path class="st46" d="M418.5,277.6c0.6,9.4,0.3,9.9,0.1,13.5c0,0,0.4,1.4,1.2,0.9c0.8-0.5,2.4-12.4,2-13.5
				C421.3,276.9,418.5,277.6,418.5,277.6z"/>
			<path class="st46" d="M418.7,290.8l-1.3,1l-1.1,1.3c0.5,0.5,1.1-0.3,1.1-0.3c-0.4,1.3-1,2.4-1,2.4c-0.2,0.5,0.3,0.5,0.3,0.5
				c0.5-0.4,1.2-1.8,1.2-1.8c-0.3,0.9-0.9,2.2-0.9,2.2c-0.1,0.4,0.4,0.4,0.4,0.4c0.9-0.3,1.2-2.2,1.2-2.2c-0.1,0.7-0.7,2.1-0.7,2.1
				c0.1,0.3,0.2,0.3,0.2,0.3c0.8-0.1,1.1-1.9,1.1-1.9l-0.1,0.7c-0.3,0.9,0.3,0.8,0.3,0.8l0.2-0.4c0.6-1.3,0.5-2.6,0.5-2.6v-1.7
				L418.7,290.8z"/>
			<path class="st46" d="M416.9,261.3c3-0.1,4,3,4,3s1.2,10,1.1,14.1c-0.1,2.8-3.3-0.2-3.5-0.7c-0.4-1.2-3.5-13.5-3.5-13.5
				S414.9,261.5,416.9,261.3z"/>
			<path class="st45" d="M418,277.8l-3.5-13.9c0.2-3.3,3.2-3.2,3.2-3.2c2.9,0.3,3.5,3,3.5,3l1,13.6c0,0,0.4,3.1-1.2,2.7
				C421,280,418.2,279.7,418,277.8z"/>
			<polygon class="st5" points="420.5,290.9 420.2,292 418.1,291.1 418.4,289.9 			"/>
			<path class="st45" d="M417.8,276.9c0,0,0.2,11,0.3,13.3l2.3,1.1c0,0,2.4-10.4,1.7-14C422.2,277.3,419.2,274.8,417.8,276.9z"/>
		</g>
		<path class="st46" d="M412.4,251.7l-0.1,5.1l-5-1c0,0,1.3-1.8,0.7-5L412.4,251.7z"/>
		<path class="st47" d="M409.8,255.6c-0.5,0.2-1.4,0.7-2,0.2c-0.1-0.1-0.2-0.3-0.2-0.4c0.3-0.7,0.8-2.3,0.4-4.5l4.4,0.8v0.5
			C411.8,253.6,411.1,255,409.8,255.6z"/>
		<g>
			<path class="st48" d="M412.5,251.8c0,0,0.9-0.2,1.9-2.4c0,0,2.2-2.4,0.8-5.7c0,0-0.8-2.8-5.2-2.8
				C410,240.9,409.5,247.9,412.5,251.8z"/>
			<path class="st46" d="M407.3,252.2l-0.3-0.9l-0.7-3.1c-0.1-0.4-0.1-0.9,0-1.3c0.1-0.4,0.1-0.8,0-1.3c-0.5-2.2,0.6-3.3,0.6-3.3
				c1.2-1.9,3.9-1.5,3.9-1.5c3.5,0.7,3.8,4.4,3.8,4.4c0.6,2.5-1.2,4.3-1.2,4.3c-0.1,0.1-0.1,0.9-0.1,1.2c-0.2,0.9-1,1.4-1.8,1.7
				s-1.8,0.6-2.7,0.6C408.4,252.9,407.4,252.7,407.3,252.2z"/>
		</g>
		<path class="st5" d="M415.3,277.9c0,0.5,0.6,6.1,0.3,6.1c0,0-8.4,0-12.7-3l0.1-5.4l-2.1-15.8c0,0-0.8-2.5,0.8-3.3l6.2-2l-0.4,1.3
			l0.8,2.9l4-3.4l7.6,6.4c-0.5,1.4-0.9,2.9-1.4,4.3c-0.9,2.6-1.7,5.2-2.6,7.8C415.9,273.7,415.2,276.5,415.3,277.9z"/>
		<polygon class="st49" points="408.9,255.6 408.9,258.1 409.8,257.4 		"/>
		<g>
			<g>
				<path class="st50" d="M407.7,259.4c0,0.2,0.1,0.4,0.3,0.4c0.2,0,0.3-0.1,0.3-0.3c0-0.2-0.1-0.4-0.3-0.4
					C407.9,259.1,407.7,259.2,407.7,259.4z"/>
			</g>
			<g>
				<path class="st50" d="M407.6,265.9c0,0.2,0.1,0.4,0.3,0.4c0.2,0,0.3-0.1,0.3-0.3c0-0.2-0.1-0.4-0.3-0.4
					C407.8,265.6,407.6,265.7,407.6,265.9z"/>
			</g>
			<g>
				<path class="st50" d="M407.5,272.3c0,0.2,0.1,0.4,0.3,0.4c0.2,0,0.3-0.1,0.3-0.3c0-0.2-0.1-0.4-0.3-0.4S407.5,272.1,407.5,272.3
					z"/>
			</g>
			<g>
				<path class="st50" d="M407.4,278.7c0,0.2,0.1,0.4,0.3,0.4c0.2,0,0.3-0.1,0.3-0.3c0-0.2-0.1-0.4-0.3-0.4
					C407.5,278.4,407.4,278.5,407.4,278.7z"/>
			</g>
		</g>
		<line class="st51" x1="408.8" y1="258.4" x2="408.4" y2="282.8"/>
		<g>
			<path class="st52" d="M402.9,281.4c0,0,4.1,3.1,12.9,3.1c0.1,0,0.1-0.4,0.1-0.4l-0.1-0.9c0-0.3-0.2-0.3-0.2-0.3s-8.4,0-12.7-3
				c0,0-0.2-0.1-0.2,0.2v1.1C402.7,281.1,402.7,281.3,402.9,281.4z"/>
			<g>
				<path class="st53" d="M407.1,283.1c0,0.1,0.1,0.3,0.2,0.3l1.7,0.4c0.1,0,0.2-0.1,0.2-0.2v-1.3c0-0.1-0.1-0.3-0.2-0.3l-1.7-0.4
					c-0.1,0-0.2,0.1-0.2,0.2V283.1z"/>
				<line class="st53" x1="409.3" y1="282.9" x2="408.4" y2="282.6"/>
			</g>
		</g>
		<path class="st50" d="M408.9,255.5c0,0,2.8-0.6,3.5-1.7l0.8,1.8l-3,2.5L408.9,255.5"/>
		<path class="st42" d="M411.9,243.9c0.1,0.2,0.4,1.6,0,2.1c1,1,0.5,2.5,0.5,2.5l0.2,0.1c1.4-0.1,0.9,2.6,0.9,2.6
			c0-0.1,0.2-0.2,0.3-0.2c0.3-0.2,0.9-1.1,1.1-1.4c1-1.7,0.9-1.9,1.2-2.9c0.2-0.7,0.2-2.9-0.9-4.1
			C415.1,242.4,413.8,242.2,411.9,243.9z"/>
		<path class="st54" d="M411.3,240.1"/>
		<g>
			<g>
				<g>
					<g>
						<g>
							<g>
								<path class="st46" d="M412.8,249.8c0.1,0.1,0.3,0.2,0.5,0.3c0.6,0.1,1-0.3,1.1-1s-0.3-1.3-0.9-1.4c-0.3-0.1-0.5,0-0.7,0.2
									c-0.3,0.2-0.3,0.8-0.3,1.2C412.5,249.3,412.6,249.6,412.8,249.8z"/>
							</g>
						</g>
					</g>
				</g>
			</g>
			<g>
				<g>
					<path class="st55" d="M413.2,248.3c0.1-0.3,0.7,0.1,0.6,0.3c-0.1,0.1-0.2,0.2-0.3,0.2c-0.1,0.1-0.2,0.2-0.2,0.3v0.1
						c0.1,0.1,0.4-0.2,0.5-0.3s0.2-0.4,0.1-0.5c-0.1-0.2-0.2-0.3-0.4-0.3C413.4,248.1,413.2,248,413.2,248.3
						C413.2,248.2,413.2,248.3,413.2,248.3L413.2,248.3z"/>
				</g>
				<g>
					<path class="st55" d="M413.4,248.7c-0.1-0.1-0.1,0-0.2,0s-0.1,0.1-0.1,0.2c-0.1,0.2,0,0.4,0,0.6c0.1,0.1,0.2,0.3,0.3,0.3
						c0.2,0,0.3-0.1,0.3-0.3v-0.2c0,0-0.1,0-0.1,0.1c0,0-0.1,0-0.2,0s-0.2-0.1-0.3-0.2c0,0,0,0,0-0.1c0,0.1,0,0.1,0,0.1v-0.1
						c0.1-0.1,0.1-0.1,0.2-0.2C413.4,248.8,413.5,248.7,413.4,248.7L413.4,248.7z"/>
				</g>
			</g>
		</g>
		<path class="st45" d="M413.6,256.3l-3.6,12l0.1,22.5c0,0,5.2,1,7.5-0.6l-1.3-13.6l3.7-15L413.6,256.3z"/>
		<path class="st7" d="M413.6,256.3l-3.6,12v0.6l4.3-3.7c0,0,0.5-0.7-0.1-1.3l-1-1.2l0.7-0.4c0,0,1-0.3,0.9-1.3l-0.2-3.8
			L413.6,256.3z"/>
		<path class="st45" d="M406.1,254.9l-3.8,1.2c0,0-2.1,0.2-1.7,2.7l1,13.3l-0.8,13.5c0,0-0.5,2.4,3.7,3l1.9-21.5L406.1,254.9z"/>
		<path class="st50" d="M406.6,255.2c0,0,0.3-1,1.5-1.7l-0.2,3.6C407.9,257.1,407.2,255.2,406.6,255.2z"/>
		<path class="st49" d="M406.4,256.9l0.1-1.7c0.4,0,0.7,0.6,1,1.1L406.4,256.9z"/>
		<path class="st7" d="M406.1,254.9l-1,0.3l-0.8,3.4c0,0-0.4,0.8,0.1,1.2l0.9,0.8l-1.3,0.6c0,0-0.7,0.3-0.3,1.1l2.5,6l0.1-0.9
			L406.1,254.9z"/>
		<path class="st56" d="M412.8,250.4l-0.3-1.8l-0.2-0.1c0,0-0.3,1.1-1.5,1.1c0,0-0.6,0-0.8,0c0,0-0.4-0.4-0.4-0.5
			c-0.4-0.3-0.8-0.5-1.3-0.6c-0.4-0.1-0.9-0.3-1.3-0.2c-0.1,0-0.6,0.2-0.6,0.1c0,0,0.5,2.9,0.9,3.7c0,0,0.2,0.6,1.5,0.7
			c0,0,2.3,0.2,4.1-1.2C413.1,251.5,412.8,250.4,412.8,250.4z M406.9,249.2c0.1-0.3,0.1-0.5,0.3-0.5c0.4,0,0.9,0.2,1.4,0.3
			c0.4,0.1,0.8,0.2,0.9,0.7c0.1,0.4,0,0.9-0.2,1.2c-0.3,0.5-1.3,0.6-1.8,0.2C407.2,250.7,406.8,249.7,406.9,249.2z"/>
		<g>
			<polygon class="st57" points="409.1,256.5 409.2,256.4 409.9,257.6 409.3,257.8 			"/>
			<path class="st57" d="M407.5,256.3l-0.2-0.4c0,0-0.7,0.5,0,1.4C407.4,257.4,407.4,256.8,407.5,256.3z"/>
			<path class="st57" d="M409.1,256.5c0,0-0.6,0.4-1.6-0.2c-0.2,0.3-0.2,0.6-0.2,1l0.5,1.3l0.7,0.1l0.7-1
				C409.3,257.8,409.4,257.5,409.1,256.5z"/>
			<polygon class="st58" points="408.6,258.8 408.9,275.5 407.6,277.7 406.7,275 407.9,258.6 			"/>
		</g>
	</g>
	<path class="st42" d="M411.7,243.6l1.2-0.4l2.2-0.7c0,0,0-1.6-2.7-2.7c0,0-3.4-1.1-6.1,0c0,0-0.7,0.3-1.3-0.2
		C405,239.5,405.8,243.9,411.7,243.6z"/>
</g>
</svg>
